<?xml version="1.0" encoding="UTF-8"?>
<svg width="24px" height="24px" viewBox="0 0 24 24" version="1.1" xmlns="http://www.w3.org/2000/svg" xmlns:xlink="http://www.w3.org/1999/xlink">
    <title>alarmlight-solid</title>
    <g id="页面-1" stroke="none" stroke-width="1" fill="none" fill-rule="evenodd">
        <g id="首页-深色" transform="translate(-540.000000, -228.000000)">
            <g id="告警数量" transform="translate(504.000000, 192.000000)">
                <g id="编组-2" transform="translate(24.000000, 24.000000)">
                    <g id="alarmlight-solid" transform="translate(12.000000, 12.000000)">
                        <g id="bg">
                            <rect id="矩形" x="0" y="0" width="24" height="24"></rect>
                        </g>
                        <path d="M12,4.5 C16.1421356,4.5 19.5,7.85786438 19.5,12 L19.5,21 L21.75,21 C22.1642136,21 22.5,21.3357864 22.5,21.75 C22.5,22.1642136 22.1642136,22.5 21.75,22.5 L2.25,22.5 C1.83578644,22.5 1.5,22.1642136 1.5,21.75 C1.5,21.3357864 1.83578644,21 2.25,21 L4.5,21 L4.5,12 C4.5,7.85786438 7.85786438,4.5 12,4.5 Z M12.3833522,9.10537525 C12.0273358,8.89365566 11.5670948,9.01063135 11.3553753,9.36664777 L9.10537525,13.1501282 L9.0482402,13.2675187 C8.86480372,13.743766 9.21308231,14.2834805 9.75,14.2834805 L12.9195,14.283 L11.3584153,16.8615813 C11.1438976,17.2159188 11.2572439,17.677067 11.6115813,17.8915847 C11.9659188,18.1061024 12.427067,17.9927561 12.6415847,17.6384187 L14.8915847,13.9218991 L14.9464479,13.8129508 C15.1416309,13.3340942 14.792564,12.7834805 14.25,12.7834805 L11.067,12.783 L12.6446247,10.1333522 C12.8563443,9.77733581 12.7393687,9.31709484 12.3833522,9.10537525 Z M4.5,4.18933983 L5.56066017,5.25 C5.85355339,5.54289322 5.85355339,6.01776695 5.56066017,6.31066017 C5.26776695,6.60355339 4.79289322,6.60355339 4.5,6.31066017 L3.43933983,5.25 C3.14644661,4.95710678 3.14644661,4.48223305 3.43933983,4.18933983 C3.73223305,3.89644661 4.20710678,3.89644661 4.5,4.18933983 Z M20.5606602,4.18933983 C20.8535534,4.48223305 20.8535534,4.95710678 20.5606602,5.25 L19.5,6.31066017 C19.2071068,6.60355339 18.732233,6.60355339 18.4393398,6.31066017 C18.1464466,6.01776695 18.1464466,5.54289322 18.4393398,5.25 L19.5,4.18933983 C19.7928932,3.89644661 20.267767,3.89644661 20.5606602,4.18933983 Z M12,0.75 C12.4142136,0.75 12.75,1.08578644 12.75,1.5 L12.75,3 C12.75,3.41421356 12.4142136,3.75 12,3.75 C11.5857864,3.75 11.25,3.41421356 11.25,3 L11.25,1.5 C11.25,1.08578644 11.5857864,0.75 12,0.75 Z" id="形状结合" fill="currentColor"></path>
                    </g>
                </g>
            </g>
        </g>
    </g>
</svg>