<svg t="1727404983355" class="icon" viewBox="0 0 1024 1024" version="1.1" xmlns="http://www.w3.org/2000/svg" p-id="57314" width="64" height="64"><path d="M512 0C229.184 0 0 229.28 0 512c0 282.816 229.216 512 512 512 282.688 0 512-229.216 512-512C1024 229.312 794.752 0 512 0L512 0zM352 320c52.992 0 96 42.976 96 95.968s-43.008 95.968-96 95.968S256 468.992 256 415.968C256 362.976 298.976 320 352 320L352 320zM192 703.968c0-57.568 7.264-69.344 31.936-94.272C251.232 582.048 303.04 576 349.44 576c41.888 0 102.464 7.04 130.976 33.696 31.52 29.536 31.328 47.392 31.328 94.272L192 703.968 192 703.968zM767.968 640l-192.032 0 0-64 192.032 0L767.968 640zM831.968 511.936 576 511.936l0-64 255.968 0L831.968 511.936zM831.968 383.968 576 383.968 576 320l255.968 0L831.968 383.968z" p-id="57315"></path></svg>