<svg t="1773631381711" class="icon" viewBox="0 0 1024 1024" version="1.1" xmlns="http://www.w3.org/2000/svg" p-id="14273" width="44" height="44"><path d="M28.444444 298.666667h85.333334v597.333333H28.444444z" p-id="14274"></path><path d="M56.888889 810.666667h711.111111v85.333333H56.888889zM56.888889 298.666667h654.222222v85.333333H56.888889z" p-id="14275"></path><path d="M739.555556 412.444444h85.333333v483.555556h-85.333333zM910.222222 355.555556h85.333334v341.333333h-85.333334zM199.111111 128h568.888889v85.333333H199.111111z" p-id="14276"></path><path d="M709.660444 187.392l58.311112-58.311111 227.271111 227.271111-58.311111 58.311111zM652.202667 357.489778l58.311111-58.311111 114.659555 114.631111-58.311111 58.311111z" p-id="14277"></path><path d="M199.111111 469.333333h85.333333v256H199.111111z"  p-id="14278"></path><path d="M199.111111 469.333333h256v85.333334H199.111111zM199.111111 640h256v85.333333H199.111111zM455.111111 469.333333h85.333333v256h-85.333333z" p-id="14279"></path></svg>