<svg t="1773632006485" class="icon" viewBox="0 0 1024 1024" version="1.1" xmlns="http://www.w3.org/2000/svg" p-id="28227" width="44" height="44"><path d="M948.07 858.522H221.696a53.862 53.862 0 0 1-53.811-53.812V365.056c0-29.67 24.115-53.811 53.811-53.811h607.718c13.799 0 26.932 5.222 36.941 14.694L985.011 437.99c10.701 10.138 16.845 24.372 16.845 39.117v327.578a53.837 53.837 0 0 1-53.786 53.837zM221.696 336.845c-15.54 0-28.211 12.646-28.211 28.211V804.71c0 15.565 12.646 28.212 28.211 28.212H948.07c15.54 0 28.212-12.647 28.212-28.212V477.133a28.26 28.26 0 0 0-8.858-20.506L848.768 344.576a28.083 28.083 0 0 0-19.354-7.706H221.696z" p-id="28228"></path><path d="M148.813 785.638a53.888 53.888 0 0 1-53.837-53.81V292.172c0-29.67 24.14-53.811 53.837-53.811h607.693c13.772 0 26.905 5.222 36.94 14.694a12.8 12.8 0 1 1-17.561 18.637 28.237 28.237 0 0 0-19.405-7.706H148.813c-15.565 0-28.237 12.647-28.237 28.211v439.655c0 15.565 12.646 28.211 28.237 28.211a12.8 12.8 0 0 1 0 25.574z" p-id="28229"></path><path d="M75.93 712.755a53.862 53.862 0 0 1-53.812-53.811V219.29c0-29.67 24.116-53.812 53.812-53.812h607.718c13.798 0 26.931 5.223 36.94 14.695 5.12 4.864 5.351 12.953 0.513 18.099a12.826 12.826 0 0 1-18.1 0.512 28.083 28.083 0 0 0-19.353-7.706H75.93c-15.54 0-28.212 12.647-28.212 28.212v439.654c0 15.565 12.647 28.211 28.212 28.211a12.8 12.8 0 0 1 0 25.6z" p-id="28230"></path><path d="M584.883 476.646v148.557h-295.68v-80.64h215.04v-107.52h41.037c21.862 0 39.603 17.741 39.603 39.603z" p-id="28231"></path><path d="M396.723 437.043h80.64v80.64h-80.64z m-26.88 0v80.64h-80.64v-41.037c0-21.862 17.741-39.603 39.424-39.603h41.216z m215.04 215.04v41.395a39.424 39.424 0 0 1-39.603 39.245h-41.037v-80.64h80.64z m-188.16 0h80.64v80.64h-80.64z m-26.88 0v80.64h-41.216c-21.683 0-39.424-17.561-39.424-39.245v-41.395h80.64z" p-id="28232"></path></svg>