<svg t="1773632140334" class="icon" viewBox="0 0 1024 1024" version="1.1" xmlns="http://www.w3.org/2000/svg" p-id="29269" width="44" height="44"><path d="M325.818182 688.872727c-46.545455 0-93.090909-18.618182-125.672727-51.2-51.2-51.2-65.163636-125.672727-37.236364-195.490909s93.090909-107.054545 162.909091-107.054545h37.236363v139.636363h139.636364v37.236364c0 69.818182-41.890909 134.981818-107.054545 162.909091-23.272727 9.309091-46.545455 13.963636-69.818182 13.963636zM325.818182 372.363636c-55.854545 0-107.054545 32.581818-130.327273 88.436364-18.618182 51.2-9.309091 111.709091 32.581818 148.945455 37.236364 41.890909 97.745455 51.2 148.945455 32.581818 55.854545-23.272727 88.436364-74.472727 88.436363-130.327273H325.818182V372.363636z" p-id="29270"></path><path d="M535.272727 442.181818c0-37.236364-13.963636-74.472727-41.890909-97.745454-27.927273-27.927273-60.509091-41.890909-97.745454-41.890909v139.636363h139.636363z" p-id="29271"></path><path d="M907.636364 884.363636h-791.272728C51.2 884.363636 0 833.163636 0 768v-512C0 190.836364 51.2 139.636364 116.363636 139.636364h791.272728C972.8 139.636364 1024 190.836364 1024 256v512c0 65.163636-51.2 116.363636-116.363636 116.363636zM116.363636 186.181818C79.127273 186.181818 46.545455 218.763636 46.545455 256v512c0 37.236364 32.581818 69.818182 69.818181 69.818182h791.272728c37.236364 0 69.818182-32.581818 69.818181-69.818182v-512c0-37.236364-32.581818-69.818182-69.818181-69.818182h-791.272728z" p-id="29272"></path><path d="M698.181818 349.090909h139.636364c13.963636 0 23.272727 9.309091 23.272727 23.272727s-9.309091 23.272727-23.272727 23.272728h-139.636364c-13.963636 0-23.272727-9.309091-23.272727-23.272728s9.309091-23.272727 23.272727-23.272727zM698.181818 512h139.636364c13.963636 0 23.272727 9.309091 23.272727 23.272727s-9.309091 23.272727-23.272727 23.272728h-139.636364c-13.963636 0-23.272727-9.309091-23.272727-23.272728s9.309091-23.272727 23.272727-23.272727zM698.181818 674.909091h139.636364c13.963636 0 23.272727 9.309091 23.272727 23.272727s-9.309091 23.272727-23.272727 23.272727h-139.636364c-13.963636 0-23.272727-9.309091-23.272727-23.272727s9.309091-23.272727 23.272727-23.272727z" p-id="29273"></path></svg>