<svg t="1727340008992" class="icon" viewBox="0 0 1024 1024" version="1.1" xmlns="http://www.w3.org/2000/svg" p-id="23053" width="64" height="64"><path d="M487 347.43C487 424.512 424.512 487 347.43 487H237.57C160.488 487 98 424.512 98 347.43V237.57C98 160.488 160.488 98 237.57 98h109.86C424.512 98 487 160.488 487 237.57v109.86zM487 786.43C487 863.512 424.512 926 347.43 926H237.57C160.488 926 98 863.512 98 786.43V676.57C98 599.488 160.488 537 237.57 537h109.86C424.512 537 487 599.488 487 676.57v109.86zM926 347.43C926 424.512 863.512 487 786.43 487H676.57C599.488 487 537 424.512 537 347.43V237.57C537 160.488 599.488 98 676.57 98h109.86C863.512 98 926 160.488 926 237.57v109.86zM730.7 533.6c-107.861 0-195.3 87.439-195.3 195.3s87.439 195.3 195.3 195.3S926 836.761 926 728.9s-87.439-195.3-195.3-195.3z m0 309.734c-63.2 0-114.435-51.234-114.435-114.434S667.5 614.465 730.7 614.465 845.134 665.7 845.134 728.9 793.9 843.334 730.7 843.334z" p-id="23054"></path></svg>