<svg t="1773632700962" class="icon" viewBox="0 0 1024 1024" version="1.1" xmlns="http://www.w3.org/2000/svg" p-id="38349" width="44" height="44"><path d="M845.312 144.896H178.688c-39.424 0-71.168 31.744-71.168 71.168v452.096c0 39.424 31.744 71.168 71.168 71.168h216.576c-30.72 30.208-50.176 72.704-50.176 118.784 0 13.312 10.752 23.552 24.064 23.552l285.696-0.512c13.312 0 23.552-10.752 23.552-23.552 0-47.616-20.48-89.6-53.248-118.784H844.8c39.424 0 71.168-31.744 71.168-71.168V216.576c0.512-39.424-31.232-71.68-70.656-71.68zM178.688 192.512h666.624c13.312 0 23.552 10.752 23.552 24.064V573.44H155.136V216.576c0-13.312 10.752-24.064 23.552-24.064z m450.048 638.464l-232.96 1.536c10.24-48.128 50.688-92.672 102.4-92.672h13.824c59.392 0 105.984 38.912 116.736 91.136z m216.576-138.752H178.688c-13.312 0-23.552-10.752-23.552-23.552v-47.616h714.24v47.616c-0.512 13.312-11.264 23.552-24.064 23.552z" p-id="38350"></path><path d="M226.304 240.128c13.312 0 23.552 10.752 23.552 23.552V501.76c0 13.312-10.752 23.552-23.552 23.552-13.312 0-23.552-10.752-23.552-23.552V264.192c0-13.312 10.24-24.064 23.552-24.064z" p-id="38351"></path></svg>