<svg t="1727343821132" class="icon" viewBox="0 0 1024 1024" version="1.1" xmlns="http://www.w3.org/2000/svg" p-id="66295" width="64" height="64"><path d="M522.666667 192c-129.6 0-234.666667 105.066667-234.666667 234.666667 0 7.936 0.384 15.765333 1.173333 23.424l3.690667 36.714666-35.797333 8.96A170.666667 170.666667 0 0 0 298.666667 832h234.666666c2.773333 0 5.504-0.064 8.234667-0.192l1.898667-0.085333 1.898666 0.085333c3.072 0.128 6.186667 0.192 9.301334 0.192v85.333333c-3.712 0-7.381333-0.064-11.050667-0.213333-3.413333 0.149333-6.826667 0.213333-10.282667 0.213333H298.666667C157.290667 917.333333 42.666667 802.709333 42.666667 661.333333c0-107.477333 66.197333-199.402667 160-237.376C204.16 248.469333 346.858667 106.666667 522.666667 106.666667c141.504 0 261.461333 91.797333 303.744 219.050666a297.834667 297.834667 0 0 1 140.885333 70.506667l-56.96 63.530667a212.288 212.288 0 0 0-121.557333-53.418667l-30.570667-2.944-6.912-29.909333C727.210667 269.482667 633.941333 192 522.666667 192zM640 678.613333h317.141333a21.333333 21.333333 0 0 0 18.005334-32.810666l-78.869334-123.925334a21.333333 21.333333 0 0 0-29.44-6.528l-27.008 17.173334a21.333333 21.333333 0 0 0-6.528 29.44l26.688 41.962666H640a21.333333 21.333333 0 0 0-21.333333 21.333334v32a21.333333 21.333333 0 0 0 21.333333 21.333333z m0 84.266667h317.141333a21.333333 21.333333 0 0 1 21.333334 21.333333v32a21.333333 21.333333 0 0 1-21.333334 21.333334H737.152l26.709333 41.962666a21.333333 21.333333 0 0 1-6.549333 29.44l-27.008 17.194667a21.333333 21.333333 0 0 1-29.44-6.549333l-78.869333-123.946667A21.333333 21.333333 0 0 1 640 762.88z" p-id="66296"></path></svg>