<svg t="1703041767193" class="icon" viewBox="0 0 1024 1024" version="1.1" xmlns="http://www.w3.org/2000/svg" p-id="4574" width="32" height="32"><path d="M598.81 912.994c0 1.1-0.9 2-2 2H433.867c-1.1 0-2-0.9-2-2v-66.248c0-1.1 0.9-2 2-2H596.81c1.1 0 2 0.9 2 2v66.248z" p-id="4575"></path><path d="M480.231 726.15h70.248v166.942h-70.248z" p-id="4576"></path><path d="M515.355 807.272c-98.203 0-190.481-38.245-259.889-107.671-69.408-69.39-107.645-161.659-107.645-259.863 0-98.177 38.237-190.447 107.653-259.863 69.399-69.417 161.677-107.653 259.88-107.653 98.151 0 190.455 38.237 259.88 107.67 69.408 69.399 107.653 161.668 107.653 259.846 0 98.204-38.245 190.473-107.67 259.88-69.389 69.409-161.71 107.654-259.862 107.654z m0-658.053c-77.623 0-150.581 30.228-205.428 85.118-54.89 54.864-85.109 127.813-85.109 205.402 0 77.606 30.219 150.546 85.1 205.428 54.873 54.881 127.813 85.1 205.437 85.1 77.589 0 150.563-30.219 205.428-85.1 54.881-54.882 85.101-127.822 85.101-205.428 0-77.588-30.22-150.538-85.101-205.402-54.864-54.89-127.839-85.118-205.428-85.118z" p-id="4577"></path><path d="M202.268 468.243c-1.1 0-2-0.9-2-2v-72.988c0-1.1 0.9-2 2-2h76.787c1.1 0 2 0.9 2 2v72.988c0 1.1-0.9 2-2 2h-76.787z" p-id="4578"></path><path d="M261.813 447c0 1.1-0.9 2-2 2H221.52c-1.1 0-2-0.9-2-2v-34.502c0-1.1 0.9-2 2-2h38.293c1.1 0 2 0.9 2 2V447zM751.664 468.243c-1.1 0-2-0.9-2-2v-72.988c0-1.1 0.9-2 2-2h76.779c1.1 0 2 0.9 2 2v72.988c0 1.1-0.9 2-2 2h-76.779z" p-id="4579"></path><path d="M811.183 447c0 1.1-0.9 2-2 2h-38.275c-1.1 0-2-0.9-2-2v-34.502c0-1.1 0.9-2 2-2h38.275c1.1 0 2 0.9 2 2V447zM289.948 190.88a2.006 2.006 0 0 1 0.413-2.798l58.599-43.519a2.006 2.006 0 0 1 2.798 0.413l50.48 67.921c0.656 0.883 0.47 2.142-0.413 2.797l-58.607 43.519a2.006 2.006 0 0 1-2.798-0.413l-50.472-67.92z" p-id="4580"></path><path d="M347.189 232.287a2.007 2.007 0 0 1-2.799-0.413l-27.507-37.024a2.006 2.006 0 0 1 0.413-2.798l27.693-20.563a2.007 2.007 0 0 1 2.799 0.413l27.507 37.024c0.656 0.883 0.47 2.142-0.413 2.798l-27.693 20.563zM628.506 646.635a2.006 2.006 0 0 1 0.413-2.798l58.599-43.526a2.006 2.006 0 0 1 2.798 0.413l50.439 67.945c0.656 0.883 0.47 2.142-0.413 2.798l-58.6 43.51a2.006 2.006 0 0 1-2.798-0.413l-50.438-67.929z" p-id="4581"></path><path d="M685.721 688.051a2.006 2.006 0 0 1-2.798-0.413l-27.491-37.024a2.006 2.006 0 0 1 0.413-2.798l27.694-20.579a2.006 2.006 0 0 1 2.798 0.414l27.491 37.039c0.656 0.884 0.47 2.143-0.413 2.799l-27.694 20.562zM628.919 215.695a2.006 2.006 0 0 1-0.413-2.798l50.438-67.92a2.006 2.006 0 0 1 2.798-0.413l58.6 43.519a2.007 2.007 0 0 1 0.413 2.798l-50.439 67.92a2.006 2.006 0 0 1-2.798 0.413l-58.599-43.519z" p-id="4582"></path><path d="M686.337 231.874a2.007 2.007 0 0 1-2.798 0.414l-27.694-20.563a2.006 2.006 0 0 1-0.413-2.798l27.491-37.023a2.007 2.007 0 0 1 2.798-0.414l27.694 20.563a2.006 2.006 0 0 1 0.413 2.798l-27.491 37.023zM290.369 671.434a2.007 2.007 0 0 1-0.412-2.799l50.48-67.929a2.006 2.006 0 0 1 2.798-0.412l58.59 43.542a2.007 2.007 0 0 1 0.413 2.799l-50.489 67.946a2.006 2.006 0 0 1-2.798 0.412l-58.582-43.559z" p-id="4583"></path><path d="M347.789 687.638a2.008 2.008 0 0 1-2.799 0.413l-27.694-20.578a2.007 2.007 0 0 1-0.413-2.799l27.517-37.042a2.004 2.004 0 0 1 2.797-0.412l27.704 20.595a2.007 2.007 0 0 1 0.412 2.799l-27.524 37.024z" p-id="4584"></path><path d="M553.841 402.941c0 1.1-0.9 2-2 2h-72.988c-1.1 0-2-0.9-2-2V265.938c0-1.1 0.9-2 2-2h72.988c1.1 0 2 0.9 2 2v137.003z" p-id="4585"></path><path d="M515.373 519.763c-44.128 0-80.007-35.913-80.007-80.024 0-44.128 35.879-80.024 80.007-80.024 44.094 0 79.972 35.896 79.972 80.024 0 44.111-35.878 80.024-79.972 80.024z m0-103.52c-12.966 0-23.497 10.531-23.497 23.496 0 12.966 10.53 23.531 23.497 23.531 12.931 0 23.444-10.565 23.444-23.531s-10.513-23.496-23.444-23.496z" p-id="4586"></path><path d="M83.527 950.118c-1.1 0-2-0.9-2-2V881.87c0-1.1 0.9-2 2-2h863.648c1.1 0 2 0.9 2 2v66.248c0 1.1-0.9 2-2 2H83.527z" p-id="4587"></path></svg>