<svg t="1727404233481" class="icon" viewBox="0 0 1024 1024" version="1.1" xmlns="http://www.w3.org/2000/svg" p-id="42851" width="64" height="64"><path d="M216.32 698.624a25.6 25.6 0 0 0 25.6-25.6c0-33.536 8.192-134.144 51.2-154.88 32.256-15.36 81.152 16.64 116.48 46.336 117.248 98.56 209.152 134.144 289.024 112.128 85.248-23.552 151.808-111.616 209.408-277.504a25.6 25.6 0 0 0-48.384-16.896c-51.2 146.432-108.032 226.56-174.848 244.992-60.928 16.896-140.544-16.384-242.432-102.4-68.096-57.088-125.696-75.008-171.264-53.504-80.896 38.4-81.408 185.344-81.152 201.984a25.6 25.6 0 0 0 26.368 25.344z" p-id="42852"></path><path d="M152.832 881.408V150.272h-51.2v782.336h836.096v-51.2H152.832z" p-id="42853"></path></svg>