<svg t="1707292896443" class="icon" viewBox="0 0 1024 1024" version="1.1" xmlns="http://www.w3.org/2000/svg" p-id="4269" width="32" height="32"><path d="M401.75616 59.392h114.688a28.672 28.672 0 0 1 28.672 28.672v744.7552a28.672 28.672 0 0 1-28.672 28.672h-114.688a28.672 28.672 0 0 1-28.672-28.672V88.064a28.672 28.672 0 0 1 28.672-28.672z m0 0M154.37824 287.35488h114.688a28.672 28.672 0 0 1 28.672 28.79488v516.66944a28.672 28.672 0 0 1-28.672 28.672h-114.688a28.672 28.672 0 0 1-28.672-28.672V316.14976a28.672 28.672 0 0 1 28.672-28.79488z m0 0M952.95488 553.55392a62.3616 62.3616 0 0 0-89.76384 0 9.80992 9.80992 0 0 0 0 13.86496l75.776 75.776a9.78944 9.78944 0 0 0 13.88544 0 62.27968 62.27968 0 0 0 0-89.72288zM837.632 591.07328a9.80992 9.80992 0 0 0-13.90592 0L549.84704 864.95232a9.44128 9.44128 0 0 0-2.70336 5.87776l-34.0992 106.78272a9.80992 9.80992 0 0 0 9.37984 12.8 10.11712 10.11712 0 0 0 2.99008-0.47104l108.4416-34.63168a9.48224 9.48224 0 0 0 4.608-3.15392l273.16224-273.14176a9.80992 9.80992 0 0 0 0-13.90592zM792.3712 577.04448V546.2016a28.672 28.672 0 0 0-28.672-28.672H649.216a28.672 28.672 0 0 0-28.672 28.672v202.6496z" p-id="4270"></path></svg>