<svg t="1727408381385" class="icon" viewBox="0 0 1024 1024" version="1.1" xmlns="http://www.w3.org/2000/svg" p-id="99887" width="64" height="64"><path d="M184.32 171.008v681.65632c0 18.06336 6.88128 35.38944 19.16928 48.16896 12.288 12.77952 28.95872 19.98848 46.32576 19.98848h543.5392c29.696 0 46.08-19.12832 46.08-54.31296 0-23.51104-19.37408-47.9232-46.08-47.9232H313.30304c-18.10432 0-32.80896-15.27808-32.80896-34.07872 0-18.8416 14.66368-34.07872 32.80896-34.07872h460.55424c36.16768-0.04096 65.49504-30.55616 65.45408-68.15744V171.008c0-18.06336-6.88128-35.38944-19.16928-48.16896-12.288-12.77952-28.91776-19.98848-46.32576-19.98848h-229.25312v323.62496a18.427904 18.427904 0 0 1-4.75136 12.288 16.084992 16.084992 0 0 1-23.26528 0c-4.25984-4.58752-70.2464-61.68576-70.2464-61.68576S380.3136 434.176 376.05376 438.76352a16.084992 16.084992 0 0 1-23.26528 0 18.427904 18.427904 0 0 1-4.75136-12.288V102.85056h-98.304c-17.36704 0-34.03776 7.20896-46.32576 19.98848C191.20128 135.61856 184.32 152.94464 184.32 171.008z m0 0" p-id="99888"></path></svg>