<svg t="1727345091019" class="icon" viewBox="0 0 1024 1024" version="1.1" xmlns="http://www.w3.org/2000/svg" p-id="85904" width="64" height="64"><path d="M582.4 68.266667v232.106666l0.170667 4.992A72.96 72.96 0 0 0 655.36 373.333333H887.466667v514.133334a68.266667 68.266667 0 0 1-68.266667 68.266666H204.8a68.266667 68.266667 0 0 1-68.266667-68.266666V136.533333a68.266667 68.266667 0 0 1 68.266667-68.266666h377.6z m78.848 28.117333l198.101333 198.058667c4.565333 4.565333 8.64 9.578667 12.16 14.890666H655.36l-2.048-0.234666a8.96 8.96 0 0 1-6.912-8.725334l0.021333-216.106666c5.312 3.498667 10.282667 7.552 14.826667 12.117333z" p-id="85905"></path></svg>