<svg t="1727344112633" class="icon" viewBox="0 0 1024 1024" version="1.1" xmlns="http://www.w3.org/2000/svg" p-id="70448" width="64" height="64"><path d="M672.8 180.8c155.8 0 283.8 128 283.8 283.8v94.6c0 155.8-128 283.8-283.8 283.8H350C194.2 848.6 66.2 720.6 66.2 564.8v-94.6c0-161.4 128-289.4 283.8-289.4h322.8z m0 94.6H350c-105.7 0-189.2 83.5-189.2 189.2v94.6c0 105.7 83.5 189.2 189.2 189.2h328.3c105.7 0 189.2-83.5 189.2-189.2v-94.6c-5.5-105.7-89-189.2-194.7-189.2z m27.8 111.3l66.8 66.8-61.2 61.2 61.2 61.2-66.8 66.8-128-128 128-128z m-317.2 11.1v239.3h-94.6V397.8h94.6z" p-id="70449"></path><path d="M672.8 180.8c155.8 0 283.8 128 283.8 283.8v94.6c0 155.8-128 283.8-283.8 283.8H350C194.2 848.6 66.2 720.6 66.2 564.8v-94.6c0-161.4 128-289.4 283.8-289.4h322.8z m0 94.6H350c-105.7 0-189.2 83.5-189.2 189.2v94.6c0 105.7 83.5 189.2 189.2 189.2h328.3c105.7 0 189.2-83.5 189.2-189.2v-94.6c-5.5-105.7-89-189.2-194.7-189.2z m27.8 111.3l66.8 66.8-61.2 61.2 61.2 61.2-66.8 66.8-128-128 128-128z m-317.2 11.1v239.3h-94.6V397.8h94.6z" p-id="70450"></path></svg>