<svg t="1737706110506" class="icon" viewBox="0 0 1024 1024" version="1.1" xmlns="http://www.w3.org/2000/svg" p-id="4717" width="48" height="48"><path d="M928 365.664a32 32 0 0 0-32 32V864a32 32 0 0 1-32 32H160a32 32 0 0 1-32-32V160a32 32 0 0 1 32-32h429.6a32 32 0 0 0 0-64H160a96 96 0 0 0-96 96v704a96 96 0 0 0 96 96h704a96 96 0 0 0 96-96V397.664a32 32 0 0 0-32-32z" p-id="4718"></path><path d="M231.616 696.416a38.4 38.4 0 0 0 44.256 53.792l148-38.368 526.624-526.592L814.72 49.472 290.432 573.76l-58.816 122.656z m111.808-85.12L814.72 140l45.248 45.248L390.976 654.24l-77.824 20.16 30.272-63.104z" p-id="4719"></path></svg>