<?xml version="1.0" encoding="UTF-8"?>
<svg width="16px" height="16px" viewBox="0 0 16 16" version="1.1" xmlns="http://www.w3.org/2000/svg" xmlns:xlink="http://www.w3.org/1999/xlink">
   <path d="M0.999655239,5.12437385 L7.74519053,8.6830127 C7.82088142,8.72488603 7.90750787,8.75 8,8.75 C8.09248578,8.75 8.17910668,8.72488948 8.25341695,8.6811142 L14.9996552,5.198 L15,12 C15,12.5522847 14.5522847,13 14,13 L2,13 C1.44771525,13 1,12.5522847 1,12 L0.999655239,5.12437385 Z M14,3 C14.5522847,3 15,3.44771525 15,4 L14.9996552,4.043 L8.00165524,7.687 L1.00165524,3.969 L1.00672773,3.88337887 C1.06449284,3.38604019 1.48716416,3 2,3 L14,3 Z" id="fe-envelope"></path>
</svg>