<svg t="1773630359059" class="icon" viewBox="0 0 1024 1024" version="1.1" xmlns="http://www.w3.org/2000/svg" p-id="5939" width="44" height="44"><path d="M729.717 459.669H289.638c-16.225 0-26.546-14.633-26.546-28.261 0-13.642 13.706-27.282 29.918-27.282h438.82c16.224 0 29.93 12.633 31.15 27.282 0.001 13.626-17.079 28.261-33.263 28.261z m0 166.63H289.638c-16.225 0-26.546-14.636-26.546-28.276 0-13.626 13.706-27.268 29.918-27.268h438.82c16.224 0 29.93 12.633 31.15 27.268 0.001 13.64-17.079 28.276-33.263 28.276z m5.86 166.629H295.488c-16.212 0-32.397-16.7-32.397-30.323 0-13.584 13.702-25.22 29.927-25.22h438.814c16.212 0 29.914 10.574 31.148 25.22 0.001 13.638-11.191 30.323-27.403 30.323z m27.404-666.518c0 65.821-38.431 111.086-104.144 111.086h-312.43c-65.421 0-83.315-56.573-83.315-111.086h-93.729c-43.859 0-72.901 26.544-72.901 71.414v685.56c0 50.336 28.095 76.174 78.107 76.174h676.933c41.723 0 78.108-24.808 78.108-76.174v-685.56c0-49.556-34.295-71.414-83.315-71.414h-83.314zM647.873 70.867H378.168c-33.092 0-59.533 24.811-59.533 55.475 0 30.731 26.504 55.611 59.533 55.611h271.365c31.416 0 57.905-24.879 57.905-55.611 0.017-30.663-26.459-55.475-59.565-55.475z" p-id="5940"></path></svg>