<svg t="1727404148679" class="icon" viewBox="0 0 1024 1024" version="1.1" xmlns="http://www.w3.org/2000/svg" p-id="41807" width="64" height="64"><path d="M955.76 843.41c-4.01 21.67-29.44 22.38-46.4 22.85-105.52 0.24-211.04 0-316.57 0V960h-63.13c-155.22-28.74-310.68-55.59-465.9-83.38V147.38C219.92 119.35 376.32 92.27 532.25 64h60.53v83.38c101.99 0 203.74 0 305.73-0.24 17.67-1.65 35.33 1.88 51.11 10.13 8.24 16.25 11.54 34.62 9.89 52.76-0.47 180.9-0.47 361.79 0 542.45 1.66 30.16 0.49 60.78-3.75 90.93zM434.5 334.64c-23.08 1.18-46.17 2.59-69.25 4.24-17.19 42.87-37.21 84.56-50.64 128.84-12.48-41.69-29.21-81.97-44.28-122.72-22.38 1.18-44.75 2.59-67.13 4.01 23.55 53.47 48.76 105.99 71.61 159.7-27.09 52.05-52.29 104.81-78.43 157.34 22.38 0.94 44.75 1.88 67.13 2.35 15.78-41.46 35.57-81.5 49.46-123.66 14.37 44.52 31.33 88.33 50.88 130.96 24.5 1.65 48.99 3.3 73.49 4.71-28.04-58.41-56.77-116.35-84.8-174.76 27.55-57.24 54.88-114.01 81.96-171.01z m494.17-155.93H592.79v62.42h81.5v72.78h-81.26v41.69h81.5v72.78h-81.5v41.69h81.5v72.78h-81.5v41.69h81.5v72.78h-81.5v41.69h81.5v72.78h-81.5v62.42H928.9l-0.23-655.5z m-71.13 135.44h-142.5v-72.78h142.5v72.78z m0 114.47h-142.5v-72.78h142.5v72.78z m0 114.71h-142.5v-72.78h142.5v72.78z m0 114.47h-142.5v-72.78h142.5v72.78z m0 114.71h-142.5v-72.78h142.5v72.78z" p-id="41808"></path></svg>