<svg t="1737706066740" class="icon" viewBox="0 0 1024 1024" version="1.1" xmlns="http://www.w3.org/2000/svg" p-id="4562" width="48" height="48"><path d="M562.393 293.696a32 32 0 0 1-14.336 62.4 160 160 0 0 0-185.056 214.336 32 32 0 1 1-59.584 23.328 224 224 0 0 1 258.976-300.064zM462.137 730.4a32 32 0 0 1 14.208-62.4A160 160 0 0 0 664.57 463.52a32 32 0 1 1 60.992-19.328A224 224 0 0 1 462.105 730.4z" p-id="4563"></path><path d="M213.465 676.096a32 32 0 1 1-42.336 48C132.057 689.6 77.497 625.568 6.457 531.264a32 32 0 0 1-0.992-37.12C154.17 272.704 323.225 160 512.025 160c52.704 0 104.096 8.832 154.016 26.496a32 32 0 0 1-21.344 60.352A394.752 394.752 0 0 0 512.025 224c-159.584 0-306.24 94.464-440.576 287.04 61.824 81.056 109.44 136.288 142.048 165.056z m599.808-325.76a32 32 0 0 1 42.592-47.808c38.368 34.24 91.968 97.376 161.728 190.24a32 32 0 0 1 0.992 37.088C869.881 751.296 700.825 864 512.025 864c-37.824 0-74.944-4.544-111.36-13.664a32 32 0 0 1 15.488-62.08c31.36 7.84 63.264 11.744 95.872 11.744 159.584 0 306.24-94.464 440.576-287.04-60.64-79.712-107.328-134.112-139.328-162.656z m10.656-227.424a32 32 0 0 1 48.192 42.176l-672 768a32 32 0 0 1-48.192-42.176l672-768z" p-id="4564"></path></svg>