<svg t="1727409386917" class="icon" viewBox="0 0 1024 1024" version="1.1" xmlns="http://www.w3.org/2000/svg" p-id="112151" width="64" height="64"><path d="M342.37952 13.054293c70.826667-1.89952 77.29664 63.146667 42.036907 104.02304l32.085333 81.88928c32.35328-10.975573 81.160533-21.398187 125.003093-14.385493l64.162134 11.066027 32.085333-82.996907c-47.035733-35.07712 0.484693-123.12064 61.952-95.168853 36.396373 16.554667 46.250667 76.371627 9.956693 100.703573-11.19744 7.509333-24.029867 7.1936-39.825066 11.066027l-30.974294 80.78336c39.678293 17.527467 104.064 57.64096 121.685334 95.17056l-80.754347 53.118293-2.218667-1.107627c-5.69856-11.956907-19.64544-20.973227-29.866666-28.770986-54.546773-41.611947-144.672427-66.971307-224.564907-28.772694-22.9888 10.990933-42.072747 25.803093-60.842667 40.94464l-13.274453 15.49312c-3.735893 2.546347-2.413227 1.431893-5.531307 0l-77.43488-52.012373 3.31776-3.319467c16.704853-35.058347 76.629333-70.913707 112.836267-88.52992l-32.085333-84.102826C313.135787 127.829333 278.869333 91.136 295.917227 49.573547c9.07776-22.116693 24.482133-26.837333 46.462293-36.519254zM138.83392 238.805333l71.90528 47.58528-23.231147 39.83872c-12.209493 21.024427-21.333333 47.37536-28.762453 71.93088-35.770027 118.340267 4.48512 234.786133 51.9936 309.853867q-1.10592 1.662293-2.218667 3.319467L137.728 756.70528 110.08 711.338667c-18.397867-31.38048-31.115947-71.033173-40.930987-109.554347-36.64384-143.80544 14.539093-276.322987 69.684907-362.978987z m747.810133 0c15.32416 14.723413 24.244907 38.87104 34.292054 58.651307 60.136107 118.388053 60.258987 283.252053 0 401.70496-9.642667 18.955947-18.761387 44.281173-34.292054 57.54368L814.738773 709.12c39.31136-65.7408 85.464747-163.309227 60.842667-274.443947-9.07264-40.948053-20.041387-79.860053-38.71744-111.766186-5.49888-9.386667-22.33344-29.298347-19.913387-37.62688z m-634.975573 84.104534c14.6176 3.86048 71.744853 42.88512 80.754347 54.224213-20.992 38.683307-47.104 90.83392-34.292054 156.033707 4.020907 20.44928 33.385813 85.572267 32.085334 89.63584l-78.542507 50.904746c-13.371733-33.901227-34.36544-63.563093-45.354667-104.021333-27.077973-99.67104 12.987733-183.738027 45.349547-246.777173z m519.927467 0c14.506667 6.71744 23.354027 36.82816 29.866666 52.010666 33.604267 78.318933 31.214933 174.982827-2.218666 251.204267-7.12704 16.252587-13.953707 36.671147-26.548907 47.583573l-2.218667-2.218666-77.436586-50.904747c10.108587-18.73408 21.9136-37.490347 28.762453-59.758933 19.191467-62.405973 4.143787-146.49344-28.762453-183.698774l1.10592-2.218666zM378.88 413.651627l38.71744 26.559146c-26.763947 48.981333-17.45408 69.485227 0 117.302614l-37.61152 25.453226-2.218667-1.107626q-9.403733-19.9168-18.80576-39.83872c-14.726827-47.70816 1.204907-98.030933 19.918507-128.36864z m266.600107 0c7.908693 4.74624 10.304853 15.648427 14.38208 24.3456 26.231467 55.963307 6.38464 99.930453-12.168534 144.969386l-38.719146-25.453226 14.38208-33.19808c9.93792-35.669333-7.72096-61.90592-14.38208-85.210454z m-140.47744 11.067733c103.492267-2.56 107.383467 134.905173 11.060906 147.17952-48.878933 6.229333-90.320213-47.732053-73.0112-97.3824 10.868053-31.19104 31.766187-37.159253 61.950294-49.79712zM344.59136 638.293333c10.909013 4.0704 16.85504 17.48992 25.444693 24.3456 17.286827 13.80352 37.152427 27.32032 58.62912 36.522667 68.401493 29.293227 159.60064 12.945067 209.076907-22.132053 15.735467-11.15648 27.224747-27.0592 42.036907-38.7328l80.754346 53.118293-2.218666 2.218667c-18.2272 39.205547-71.3472 64.6656-103.985494 90.743466-56.72448 45.32224-125.952 142.36672-140.491093 227.964587l-2.218667-1.107627c-1.133227-18.003627-9.659733-34.505387-15.488-48.6912-32.325973-78.677333-79.21152-144.124587-141.597013-192.55296-15.97952-12.404053-91.91424-63.034027-86.285653-80.78336q38.176427-25.454933 76.342613-50.91328z" p-id="112152"></path></svg>