<svg t="1773631142624" class="icon" viewBox="0 0 1024 1024" version="1.1" xmlns="http://www.w3.org/2000/svg" p-id="10393" width="44" height="44"><path d="M609.578667 42.666667c24.661333 0 44.586667 19.925333 44.586666 44.586666v26.453334h50.304A206.421333 206.421333 0 0 1 910.762667 320v50.517333h26.026666a44.544 44.544 0 1 1 0 89.173334h-26.026666v100.181333h26.026666c24.661333 0 44.586667 19.925333 44.586667 44.586667 0 24.661333-19.925333 44.586667-44.586667 44.586666h-26.026666v50.517334a206.421333 206.421333 0 0 1-206.293334 206.293333h-50.304v26.752a44.544 44.544 0 1 1-89.173333 0v-26.752h-100.181333v26.752a44.544 44.544 0 1 1-89.173334 0v-26.752H324.949333a206.378667 206.378667 0 0 1-206.250666-206.293333v-50.517334h-31.402667a44.544 44.544 0 1 1 0-89.173333h31.402667v-100.181333h-31.402667a44.544 44.544 0 1 1 0-89.173334h31.402667V320a206.378667 206.378667 0 0 1 206.250666-206.293333h50.773334v-26.453334C375.68 62.592 395.52 42.666667 420.266667 42.666667c24.661333 0 44.586667 19.925333 44.586666 44.586666v26.453334h100.138667v-26.453334c0-24.661333 19.925333-44.586667 44.586667-44.586666zM324.906667 202.88A117.333333 117.333333 0 0 0 207.829333 320v379.562667a117.333333 117.333333 0 0 0 117.077334 117.12h379.562666a117.333333 117.333333 0 0 0 117.12-117.077334V320a117.333333 117.333333 0 0 0-117.12-117.12H324.906667zM494.506667 356.266667c16.64-8.149333 37.248-5.290667 50.901333 8.618666l1.706667 1.877334 111.658666 111.658666c17.493333 17.493333 17.493333 45.738667 0 63.018667a44.885333 44.885333 0 0 1-31.530666 13.056c-11.264 0-22.912-4.437333-31.573334-13.056l-37.12-37.248v119.253333c0 24.704-19.925333 44.586667-44.586666 44.586667A44.544 44.544 0 0 1 469.333333 623.445333V503.893333l-37.504 37.546667a44.8 44.8 0 0 1-31.488 13.056 44.8 44.8 0 0 1-44.672-44.586667 44.373333 44.373333 0 0 1 13.184-31.488l110.72-110.805333a44.672 44.672 0 0 1 14.890667-11.349333z" p-id="10394"></path></svg>