<svg t="1727422752580" class="icon" viewBox="0 0 1024 1024" version="1.1" xmlns="http://www.w3.org/2000/svg" p-id="115625" width="64" height="64"><path d="M515.072 226.490182h237.986909c29.277091 0 53.666909-8.378182 53.666909-40.680727s-23.784727-46.126545-53.061818-46.126546H169.378909c-29.277091 0-52.968727 13.963636-52.968727 46.126546s23.272727 40.680727 52.410182 40.680727h238.871272a64.744727 64.744727 0 0 0-0.605091 8.750545v600.436364c0 32.349091 24.529455 43.752727 53.853091 43.752727s54.737455-11.543273 54.737455-43.752727v-600.436364a64.837818 64.837818 0 0 0-0.605091-8.750545z" p-id="115626"></path><path d="M746.728727 551.796364h130.327273c16.756364 0 30.673455-23.738182 30.673455-40.773819s-13.963636-38.213818-30.673455-38.213818h-335.127273c-16.756364 0-30.114909 21.178182-30.114909 38.213818s13.312 40.773818 30.114909 40.773819h129.815273a31.464727 31.464727 0 0 0-0.325818 4.654545v297.239273c0 17.035636 21.178182 30.72 38.027636 30.72s37.608727-13.963636 37.608727-30.72v-297.239273a31.232 31.232 0 0 0-0.325818-4.654545z" p-id="115627"></path></svg>