<?xml version="1.0" standalone="no"?><!DOCTYPE svg PUBLIC "-//W3C//DTD SVG 1.1//EN" "http://www.w3.org/Graphics/SVG/1.1/DTD/svg11.dtd"><svg t="1736761763607" class="icon" viewBox="0 0 1024 1024" version="1.1" xmlns="http://www.w3.org/2000/svg" p-id="1488" xmlns:xlink="http://www.w3.org/1999/xlink" width="200" height="200"><path d="M1003.235072 290.093861a36.952855 36.952855 0 0 0-2.507991-10.593958 36.542857 36.542857 0 0 0-1.892992-5.015981 38.027851 38.027851 0 0 0-9.314964-11.105956c-0.409998-0.358999-0.613998-0.921996-1.023996-1.279995l-0.204999-0.051a38.12985 38.12985 0 0 0-13.971945-6.499974L737.811114 199.759216a38.385849 38.385849 0 0 0-17.606931 74.622707l96.936619 22.87791L512 388.718474 206.705199 297.208833l96.68062-22.87791a38.385849 38.385849 0 1 0-17.707931-74.621707L49.630815 255.546997a37.873851 37.873851 0 0 0-13.972945 6.499974l-0.152999 0.102c-0.255999 0.204999-0.306999 0.511998-0.511998 0.665997a37.975851 37.975851 0 0 0-9.877962 11.770954 36.491857 36.491857 0 0 0-1.893992 4.913981 37.105854 37.105854 0 0 0-2.55899 10.747958c0 0.919996-0.613998 1.739993-0.613998 2.711989v556.747814a38.436849 38.436849 0 0 0 27.381893 36.747856l453.46422 135.936466a38.897847 38.897847 0 0 0 22.109913 0l261.227974-78.459692a38.385849 38.385849 0 1 0-22.109913-73.547711l-211.787168 63.61775v-476.598129L927.07837 344.448648v378.022516a38.385849 38.385849 0 1 0 76.770699 0V292.90885c0-1.023996-0.562998-1.841993-0.664997-2.814989zM96.81963 344.550647l376.794521 112.854557v476.648129L96.87163 821.147776z m868.69559 457.814203a38.385849 38.385849 0 0 0-38.38585 38.385849v3.991985a36.747856 36.747856 0 0 0 38.38585 36.338857 40.176842 40.176842 0 0 0 38.385849-40.330842 38.385849 38.385849 0 0 0-38.385849-38.385849z" p-id="1489"></path><path d="M486.768099 299.920823a38.385849 38.385849 0 0 0 9.416963 6.089976c0.409998 0.153999 0.869997 0.103 1.279995 0.255999a38.078851 38.078851 0 0 0 14.483943 3.070988 30.196881 30.196881 0 0 0 18.782926-5.629978 37.259854 37.259854 0 0 0 6.653974-3.939985l99.649609-87.724655a38.385849 38.385849 0 1 0-50.719801-57.579774l-35.929859 31.629875V38.18185a38.385849 38.385849 0 0 0-76.771698 0v149.141415l-38.589849-33.16487a38.385849 38.385849 0 1 0-50.055803 58.141772z" p-id="1490"></path></svg>