<svg t="1727340408199" class="icon" viewBox="0 0 1024 1024" version="1.1" xmlns="http://www.w3.org/2000/svg" p-id="29469" width="64" height="64"><path d="M512 838.656c-22.016 0-41.7792-4.4032-61.5424-15.36L120.5248 651.6736 74.3424 675.84c-30.8224 15.36-30.8224 61.5424 0 77.0048L481.28 966.2464c8.704 4.4032 19.7632 6.5536 30.72 6.5536s22.016-2.1504 30.8224-6.5536l406.9376-213.4016c30.8224-15.36 30.8224-61.5424 0-77.0048l-46.1824-24.1664-330.0352 171.52c-19.7632 11.0592-39.5264 15.4624-61.5424 15.4624z" p-id="29470"></path><path d="M949.6576 473.4976l-46.1824-24.1664-120.9344 63.7952-72.6016 37.376-136.3968 72.6016c-19.7632 8.8064-39.6288 15.36-61.5424 15.36s-41.7792-4.4032-61.5424-15.36l-136.3968-72.6016-72.6016-37.376-120.9344-63.7952-46.1824 24.1664c-30.8224 15.36-30.8224 61.5424 0 77.0048l46.1824 24.1664 70.3488 37.376 288.1536 151.7568c8.8064 4.4032 19.7632 6.5536 30.8224 6.5536 10.9568 0 22.016-2.1504 30.8224-6.5536l288.1536-151.7568 70.3488-37.376 46.1824-24.1664c35.1232-15.36 35.1232-59.392 4.3008-77.0048z" p-id="29471"></path><path d="M512 772.608c-10.9568 0-22.016-2.1504-30.8224-6.5536L193.024 614.2976l-70.3488 37.376L452.608 823.1936c19.7632 8.8064 39.6288 15.36 61.5424 15.36s41.7792-4.4032 61.5424-15.36l329.9328-171.52-70.3488-37.376-288.0512 151.7568c-13.2096 4.4032-24.2688 6.5536-35.2256 6.5536z" p-id="29472"></path><path d="M949.6576 273.3056L542.8224 60.0064c-4.4032-2.1504-8.8064-4.4032-15.36-6.5536C522.9568 51.2 516.4032 51.2 512 51.2s-10.9568 0-15.36 2.1504c-4.4032 2.1504-10.9568 2.1504-15.36 6.5536L74.3424 273.3056c-30.8224 15.36-30.8224 61.5424 0 77.0048l46.1824 24.1664 70.3488 37.376 120.9344 63.7952 70.3488 37.376 96.768 50.5856c8.8064 4.4032 19.7632 6.5536 30.8224 6.5536 10.9568 0 22.016-2.1504 30.8224-6.5536l96.768-50.5856 70.3488-37.376 120.9344-63.7952 70.3488-37.376 46.1824-24.1664c35.328-15.36 35.328-61.5424 4.5056-77.0048z" p-id="29473"></path><path d="M527.36 55.6032c-10.9568-2.1504-22.016-2.1504-30.8224 0 4.4032-2.1504 10.9568-2.1504 15.36-2.1504s11.0592-0.1024 15.4624 2.1504z" p-id="29474"></path></svg>