<svg t="1727342334945" class="icon" viewBox="0 0 1024 1024" version="1.1" xmlns="http://www.w3.org/2000/svg" p-id="44553" width="64" height="64"><path d="M896.35 139c18.956 0 36.259 7.068 49.423 18.712 14.899 13.173 24.497 32.206 25.187 53.49v0.02c0.027 0.819 0.04 1.64 0.04 2.465l-0.002-0.231 0.002 0.21v597.667C971 852.571 937.57 886 896.333 886H128.667C87.429 886 54 852.57 54 811.333V213.667a76.281 76.281 0 0 1 0.04-2.444v-0.021c0.72-22.192 11.123-41.936 27.122-55.144C94.065 145.402 110.609 139 128.65 139zM907 373.75H118v437.583c0 5.796 4.623 10.513 10.383 10.663l0.284 0.004h767.666c5.891 0 10.667-4.776 10.667-10.667V373.75z m-367.456 85.922c17.215 3.127 28.693 19.483 25.856 36.682l-0.09 0.522-42.65 234.781c-3.16 17.388-19.816 28.924-37.204 25.765-17.215-3.127-28.693-19.484-25.856-36.683l0.09-0.521 42.65-234.781c3.16-17.389 19.816-28.924 37.204-25.765z m142.318 6.574l0.41 0.336 127.95 106.719c14.297 11.925 15.411 33.452 2.535 46.79l-0.395 0.401-127.95 128.063c-12.49 12.502-32.752 12.511-45.254 0.02-12.378-12.367-12.51-32.348-0.391-44.878l0.37-0.377 103.205-103.296-101.064-84.294c-13.436-11.206-15.36-31.096-4.413-44.661l0.336-0.41c11.206-13.436 31.096-15.36 44.661-4.413zM387.8 470.658c11.207 13.436 9.53 33.348-3.674 44.728l-0.403 0.342-101.065 84.294 103.205 103.296c12.367 12.377 12.482 32.359 0.352 44.878l-0.372 0.377c-12.377 12.366-32.359 12.481-44.877 0.351l-0.377-0.371-127.95-128.063c-13.16-13.17-12.32-34.71 1.711-46.827l0.43-0.364 127.95-106.72c13.571-11.319 33.75-9.493 45.07 4.079z" p-id="44554"></path></svg>