<svg t="1727407555191" class="icon" viewBox="0 0 1024 1024" version="1.1" xmlns="http://www.w3.org/2000/svg" p-id="92963" width="64" height="64"><path d="M495.508211 10.778947C224.417684 10.778947 10.778947 233.364211 10.778947 493.298526c0 259.880421 217.357474 487.585684 484.729264 487.585685 267.371789 0 485.376-227.705263 485.376-487.585685C980.884211 233.418105 766.598737 10.778947 495.508211 10.778947z m355.112421 331.237053c5.766737-0.377263 8.299789-5.605053 13.473684-7.114105 9.593263-2.856421 6.251789 3.072 10.940631 7.760842 4.042105 0-5.012211 2.802526-5.605052 2.802526-3.988211 1.509053-3.772632 0.700632-7.006316 0.700632-1.239579 1.616842 2.048 9.000421 2.856421 9.000421 2.856421 4.257684 4.419368 1.455158 4.096 7.868631-0.323368 5.712842 4.473263 0.431158 6.359579 0.431158 0 3.449263 5.173895 6.305684 5.551158 10.34779-2.263579 0.269474-7.383579-0.700632-8.353684 0 0.323368 4.042105 2.802526 4.042105 2.802526 7.599158 4.311579 0-3.395368 11.048421 4.203789 11.048421-1.778526 7.006316-13.743158 4.634947-15.36-2.048-11.802947-2.586947-5.497263-10.778947-5.928421-17.246316-0.538947-8.623158-8.084211-11.425684-8.08421-18.000842-6.144 0 0-11.964632 0-13.150316z m-4.042106 401.084632c0.538947-7.329684-0.754526-19.779368 2.640842-19.779369 0-5.605053 3.072-13.204211 3.503158-20.102737h3.503158c0-1.401263-0.377263-6.359579 2.048-7.545263 0-3.772632 9.701053-5.389474 4.20379-10.401684-2.317474-0.808421-4.203789-10.994526-4.20379-14.551579-2.964211 2.964211 1.509053 11.802947-5.551158 11.802947 0-8.407579-9.485474 4.850526-1.401263 4.850527 0 7.545263-9.862737 4.096-13.258105 2.048-1.724632 4.149895-2.964211 5.928421 2.048 6.898526-1.994105 5.928421-4.149895 2.101895-7.006316 0-2.748632 8.299789-9.162105 56.535579 9.377684 52.493474a429.487158 429.487158 0 0 1-344.225684 171.978105c-236.328421 0-428.624842-190.571789-428.624842-424.798316a419.301053 419.301053 0 0 1 41.067789-181.248c0 0.053895 0.161684 0.161684 0.161685 0.269474 12.395789 9.808842 12.611368 26.246737 12.611368 39.450947-1.670737 7.491368 2.048 16.330105 2.048 23.498105 3.503158 1.724632 9.701053 12.449684 9.701053 15.952843 0.161684 0 8.030316 10.886737 8.461473 11.749052 9.323789 0 14.012632 4.042105 14.012632 12.449684-0.538947 0 5.551158 12.934737 7.599158 14.551579 0 3.610947 5.605053 16.922947 9.10821 18.647579 0 11.210105 27.486316 29.264842 11.749053 2.856421-1.455158-2.425263-8.623158-15.952842-10.347789-15.952842 0-4.419368-9.216-9.593263-8.084211-13.419789 1.616842-5.874526 12.234105 7.599158 12.234105 10.617263 1.562947 0 5.605053 8.892632 5.605053 9.701053 2.586947 0 12.557474 7.383579 12.557474 11.749052 7.275789 0 11.425684 18.000842 11.641263 23.066948 0.161684 4.257684 2.586947 15.683368 8.623158 15.683368 2.694737 5.281684 14.228211 3.341474 16.761263 8.299789 7.491368 0 15.629474 5.551158 23.713684 5.551158 7.060211 0 8.515368 8.299789 14.713263 8.29979 0.970105 1.940211 4.149895 1.239579 4.149895 2.748631 6.090105 0 23.013053 9.539368 20.264421 16.653474 2.964211 1.455158 11.317895 9.808842 10.455579 13.850947 1.185684 8.245895 14.336 7.760842 19.563789 10.34779 4.904421-14.551579 11.210105-0.808421 11.210106 6.251789-0.538947 2.263579 0 12.018526 0 16.599579 6.359579 0-1.778526 10.347789-3.503158 3.449264a6.575158 6.575158 0 0 0-4.20379 5.551157c-3.395368 0-11.317895 20.965053-3.503158 23.552-0.862316 8.084211-10.401684 15.090526-1.401263 20.048843 0-0.538947 17.030737 24.198737 14.713263 24.198736 0 3.880421 2.479158 8.623158 3.449264 11.802948 0 7.114105 7.221895 23.498105 17.461894 23.498105-0.053895-0.215579 10.617263 11.102316 9.054316 11.102316 3.233684 18.647579-1.347368 30.342737-1.347368 50.499368-6.090105 0-0.323368 40.313263-8.407579 44.301474-1.455158 6.467368-6.251789 11.749053-4.20379 15.898947 0.700632 6.629053 0 13.204211 0 18.701474-1.616842 0-3.449263 8.946526-3.449263 11.048421-4.634947 0-4.904421 34.330947-4.419368 46.457263 11.102316 4.096 22.474105 7.653053 33.953684 10.832842a11.910737 11.910737 0 0 1-2.317474-6.736842c-4.688842 0-0.107789-12.503579 4.850527-12.503579 1.724632-5.928421 4.850526-6.036211 7.706947-10.347789 3.449263 0-2.048-5.551158-2.048-2.101895-0.808421 0-0.862316 2.209684-2.802526 2.748632-0.646737-1.616842 0.161684-3.395368-0.700632-3.395369 0-3.934316 2.101895-7.706947 2.101895-11.802947 1.293474 0 3.018105-4.958316 4.850526-6.197895 3.880421-4.473263 7.706947-5.012211 7.706947-11.102316 0.808421 0-1.239579-6.898526-2.802526-6.898526 4.096-3.557053 9.054316 2.856421 9.054316-4.149895 1.293474 0 2.155789-4.311579 2.155789-5.551158 5.928421-3.934316 4.796632-4.850526 13.904842-4.850526 1.131789-2.209684 7.760842-4.904421 10.455579-4.850526 0-0.970105 0.862316-10.401684 0-10.401685 0-5.012211 9.108211-5.605053 9.108211-7.545263 4.958316-3.503158 6.467368-7.653053 6.736842-13.365894 0.215579-4.634947 7.168-10.24 11.048421-10.24 6.197895 0 2.048-2.694737 5.928421-2.694737-1.077895-3.341474 1.509053-3.125895 3.287579-5.22779 2.694737-3.233684 1.778526-14.767158 2.317474-19.725473-1.293474 0 5.820632-6.629053 6.305684-7.599158 3.341474 0 5.766737-2.802526 9.054316-2.802527 1.778526-3.449263 13.258105-8.623158 17.461895-11.749052 1.832421-7.329684 7.006316-8.784842 7.006315-16.599579 2.048 0 4.149895-15.252211 4.149895-18.000842 0.431158 0 0.754526-13.850947 0.754526-15.198316 0.269474 0 10.455579-11.156211 10.455579-12.503579 9.323789-6.898526 7.922526-27.216842-1.077894-35.139368a40.043789 40.043789 0 0 0-16.384-9.808843c-1.239579 3.664842-4.527158 1.293474-7.814737 1.239579-5.605053-0.161684-6.251789 3.610947-11.749053 3.610948 0.646737-3.341474 2.425263-13.150316-4.203789-13.850948 0 6.575158-6.736842 3.449263-4.850527-0.700631-3.179789 0-6.090105-4.850526-10.509473-5.551158 0 7.114105-10.671158 1.401263-7.706948 1.401263 0-0.916211-1.778526-10.401684 0.754527-10.401684-0.862316-4.042105-1.832421-11.102316-4.904421-13.150316-2.694737-5.712842 1.616842-3.610947-4.850527-8.946526-1.185684-2.263579-1.724632-0.538947-2.802526-2.802527-2.155789 0-6.413474-5.605053-7.706947-0.700631-4.042105-0.269474-7.545263-2.155789-11.425685-3.341474-6.844632-2.101895-0.808421-2.694737-5.335579-4.958316 0-1.994105-6.251789-2.533053-6.251789-5.551158-1.293474-3.287579-3.772632-3.610947-4.20379-4.796631-0.646737 0.161684-1.077895-0.053895-1.401263-0.700632-1.401263 0.053895-1.131789-2.694737-4.257684-2.694737-0.323368-0.970105-3.287579-3.395368-4.149895-2.856421-3.233684 2.263579-11.964632 1.185684-15.791158 0.916211-9.431579-0.646737-7.760842-11.317895-12.826947-12.018526a20.911158 20.911158 0 0 1-10.940632 4.473263c-0.862316-1.347368-1.077895-1.024-3.018105-2.15579a19.078737 19.078737 0 0 0-3.772631 1.940211c-2.263579 1.401263-4.473263 5.820632-7.383579 4.311579-1.293474-1.509053-2.263579-1.077895-2.856421 1.131789-5.820632 0 2.964211 13.850947-11.102316 13.850948 0.538947-4.850526 0-9.701053-7.006316-9.701053 0 5.982316-10.024421 4.850526-14.659368 4.203789 1.131789-4.581053-1.131789-7.922526-4.850527-10.401684 0-3.610947-2.856421-8.084211-2.856421-13.850947-4.850526 0 2.533053-15.198316-5.551158-15.198316a5.173895 5.173895 0 0 1 0.700632 2.748632c-5.605053 0-11.210105 1.024-16.761263 0 1.401263-5.012211-3.018105-5.551158-1.616842-10.886737 1.024-4.311579 2.802526-8.192 3.718737-12.665263 2.101895 0 1.778526-6.197895 5.551157-6.197895 3.880421-2.209684-1.401263-8.353684-1.401263-2.802526l-7.653052 2.802526c0 0.431158-7.006316 7.006316-7.006316 2.048-3.503158 1.401263-8.946526 8.353684-3.503158 9.701053-0.538947 2.856421-4.850526 5.12-4.850526 5.551157-7.922526 0.053895-5.066105-0.538947-5.551158-4.149894-4.634947 0-9.970526-10.401684-14.713263-10.401684 0-4.419368-4.850526-8.623158-4.850527-14.551579-1.185684 0-1.185684-20.749474 0-20.749474 0-10.509474 7.437474-19.348211 18.108632-20.426105 6.682947-0.646737 5.928421 4.042105 12.072421 4.850526 3.503158 0.538947 5.443368-1.024 8.892631-2.371368-0.215579-2.910316-2.155789-3.664842-2.802526-6.25179 4.149895 0 15.737263 0.754526 17.461895 4.149895 4.042105 1.616842 9.162105-2.748632 11.856842 1.077895a43.277474 43.277474 0 0 1 5.605053 14.874947c-0.862316 0 3.772632 6.844632 4.203789 7.545263 6.575158-0.053895 4.958316-5.12 3.880421-10.024421-0.808421-3.988211-1.832421-16.168421-4.581052-19.024842 0-11.641263 8.084211-10.455579 12.557473-19.402105 7.329684 0 8.946526-11.641263 13.258105-14.551579a47.427368 47.427368 0 0 1 3.449264-11.048421c0.970105-5.551158 3.395368-5.389474 5.605052-8.946527-0.808421 0 9.162105-7.329684 9.162106-6.251789 3.718737-2.479158 6.898526-10.24 8.353684-14.551579 1.886316 0 6.144-3.880421 7.006316-5.497263 4.850526 0 7.814737-2.802526 13.904842-2.802527-0.970105 1.994105 0 1.509053 0.700631 4.850527 0.215579 0-3.826526 0.862316-4.311579-0.10779-0.700632 2.694737-6.251789 3.449263 5.012211 2.15579 0.700632-1.401263 4.419368-2.802526 6.305684-3.395369 0-3.557053 5.227789-1.077895 6.251789-4.203789-4.096-0.215579-7.275789-1.778526-10.078315-6.25179-2.856421-4.634947-8.946526-11.048421 1.024-11.048421 0-1.347368-1.401263-0.646737-1.401263-2.048-5.12 1.401263-6.197895 4.850526-11.856843 4.850527-7.006316 2.317474-10.347789 9.054316-18.162526 9.000421 0.646737-7.006316 13.096421-21.018947 19.509895-23.120842 12.180211-3.826526 32.336842 6.844632 35.678316-8.084211 2.425263 0.323368 13.204211 4.149895 13.20421-0.646737 2.586947 0-2.155789-4.850526 2.856421-4.850526-0.700632-3.395368-6.467368-7.545263-8.407579-7.545263 0-7.653053-4.149895 0.646737-6.305684 0.646737 0-5.012211-1.778526-4.527158-3.449263-6.25179 0-3.610947-8.030316-9.269895-10.509474-13.150316-3.395368 0-8.353684-17.030737-11.15621-15.198315 0 4.149895-3.179789 9.701053-7.706948 9.701052 0 2.748632-7.006316 1.455158-8.353684 1.347369 0-4.042105 1.401263-0.538947 1.401263-2.748632-2.317474 0-2.155789-2.964211-2.155789-3.449263-1.293474 0-11.856842-10.24-11.856842-12.449684-9.269895 3.072-2.155789-0.808421-11.156211-4.850527-3.125895 8.138105-12.072421 1.401263-17.461895 1.401263 0 1.077895-4.527158-0.700632-6.251789 0 0 4.850526 4.042105 15.198316-1.401263 16.599579 1.077895 3.664842 3.610947 1.185684 5.658947 3.664843 3.233684 3.772632 1.886316 10.617263-0.053895 15.036631 8.084211 3.018105-6.305684 9.431579-6.305684 5.497263-4.419368 1.239579-5.12 6.790737-0.700631 9.701053 0 2.802526-1.455158 7.545263 2.802526 7.545263-1.185684 4.688842-8.192 5.12-12.557474 3.557053-0.485053-1.401263 0-1.886316 1.347369-1.401263-0.700632-2.694737-3.988211-10.401684-2.748632-10.401685-0.916211-2.694737-9.808842-16.599579-9.808842-9.000421-5.012211 0-10.455579 1.077895-10.455579-4.850526-1.832421-0.592842-4.850526-1.994105-5.605053-3.449263-9.162105-1.347368-12.826947-2.371368-23.013052-4.149895 0.431158-4.203789-8.784842-11.856842-13.312-14.551579 0-10.293895-2.910316-19.833263 8.407579-21.450105 0 1.562947 10.078316-3.072 11.15621-3.449263 2.856421-5.712842 8.515368 3.125895 10.994527-5.389474a10.024421 10.024421 0 0 1 12.773052-6.359579c-0.862316 6.359579-2.748632 13.150316-8.407579 13.150316 4.042105 3.395368 15.036632-1.401263 19.56379-1.401263 0 0.485053 7.168 1.401263 9.10821 1.401263-3.179789-4.203789-23.174737-7.706947-14.012631-14.551579 0-1.940211 8.084211-1.994105 9.162105-6.25179 0.808421-3.287579 1.778526-12.719158-0.053895-13.365894-2.694737-0.970105-5.443368 0.377263-9.754947-0.431158 0-1.455158-0.107789-2.802526-1.455158-2.802527 0 4.311579-3.880421 0.215579-7.006316 1.401264 0 1.077895 2.694737 4.149895 0.754526 4.149894 0 6.467368-0.754526 12.665263-9.10821 13.850948-0.053895-4.473263-2.371368-13.042526-7.006316-14.551579 0 13.312-12.773053-5.551158-15.306105-7.599158-1.024-3.988211-3.826526-5.712842-7.006316-6.898526-2.101895 5.389474-5.928421 0.538947-9.10821 6.144-2.640842 4.581053 0.269474 3.988211-2.694737 9.054315-3.988211 0-13.689263-2.694737-14.012632 1.401264 4.096 0.053895 5.820632 1.024 4.850526 4.850526 6.844632 0-2.748632 4.257684-2.748631 4.850526-3.934316 0-6.575158 1.509053-11.210105 0.808421a104.178526 104.178526 0 0 1-16.922948-3.718737c-4.634947-1.509053-3.772632-4.042105-5.389473-4.042105-6.251789-10.24 9.108211-4.149895 9.10821-3.449263 5.012211 0 11.102316 6.521263 9.754947-4.20379a22.959158 22.959158 0 0 0 5.551158 0.754527c-1.185684-4.850526-6.682947-2.371368-10.455579-2.15579 0.053895-2.910316-4.096-9.647158-4.850526-9.647158-1.724632-5.12-0.754526-5.389474-0.754526-9.701052-1.185684 0.323368-8.192 5.012211-8.838737 3.557052a429.109895 429.109895 0 0 1 292.217263-114.418526 429.325474 429.325474 0 0 1 327.68 151.444211c-2.533053 6.844632-8.730947 1.239579-11.695158 6.467368-0.754526 0-2.856421 6.251789 1.401263 6.25179-1.401263 5.551158-7.006316 4.742737-7.006315 0-3.880421 0-6.144 4.311579-11.802948 4.149894 0.700632-3.503158-6.467368-13.850947-10.509473-13.850947 1.293474-2.479158 0-0.215579 0-2.748632 11.641263 0 23.929263-2.101895 32.875789-2.101894 0-6.305684-19.024842-14.336-23.659789-11.856843-2.694737 1.455158-10.994526-2.694737-14.767158-2.694736 0-2.694737-23.552-2.586947-27.216842-2.694737 0-4.688842-37.510737 5.605053-40.906106 5.874526-7.976421 0.538947-11.371789 5.227789-17.785263 10.778947 0-0.107789-19.240421 15.845053-9.754947 15.845053-1.239579 10.940632-30.019368 9.701053-30.019369 16.599579-1.347368 0.377263-9.862737-1.724632-5.658947 5.497263-0.700632 0 6.575158 8.084211 7.006316 9.054316 6.090105 0 11.210105 2.748632 18.863158 2.748632 0.808421-1.616842 4.203789-2.479158 6.305684-2.748632 0.377263 4.257684 3.772632 13.150316 6.305684 13.150316 0 3.934316 1.994105 10.24-5.605053 6.197895-1.077895-0.754526-1.347368-6.467368-1.616842-8.461474-0.808421-5.389474-6.521263 2.425263-11.641263 1.616842 0 3.826526-0.808421 14.443789 3.449263 15.845053-1.886316 5.820632-9.808842 1.832421-13.258105 6.952421-2.856421 0-7.653053 8.515368-7.653053 2.748631-4.527158 3.018105 0.431158 10.940632-8.407579 6.197895-0.269474 1.940211-0.161684 4.581053-0.700631 7.653053 5.605053 0-1.077895 4.149895-2.802526 4.149894 0 6.036211-6.197895-0.323368-7.653053-1.401263a1.077895 1.077895 0 0 1-0.700632 0.700632c5.227789 8.784842-8.084211 4.688842-11.695158 2.694737-4.311579-2.479158 1.778526 3.934316 4.688843 4.904421 0 4.311579 14.659368 12.126316 6.305684 20.749473 0 2.586947 0.269474 2.802526 2.802526 2.802527 0 6.036211-7.545263 4.958316-11.856842 4.149894 1.886316-3.557053 0.485053-5.389474-4.203789-5.551158 0 5.389474-11.210105 2.425263-16.060632 4.149895-0.862316-1.778526-1.185684-2.317474-2.802526-2.748631-1.293474 3.179789-3.449263 24.899368-2.802527 24.899368 0 8.569263 6.844632 14.012632 14.659369 16.599579 0-2.155789 18.216421-0.754526 18.970947-3.718737 1.509053-5.874526 6.521263-5.928421 7.545263-12.18021 0.538947-2.910316 9.593263-24.845474 9.808842-24.899369 0-0.808421 16.599579 4.473263 19.56379-1.401263 1.455158 0 5.281684-1.347368 6.251789-2.748632 5.389474 0.646737 6.629053 10.347789 9.808842 10.34779 3.826526 5.712842 12.934737 4.257684 16.060632 10.401684 4.527158 0 4.850526 11.641263 4.850526 15.898948 5.227789-3.880421 5.928421-7.275789 4.688842-11.317895-2.048-6.844632 5.497263 1.347368 7.922527-1.832421-3.287579 0-2.586947-6.359579-9.108211-4.850527a22.905263 22.905263 0 0 1-0.646737-5.497263c-8.892632 1.455158-8.192-11.856842-15.36-10.401684-0.862316-3.233684-5.012211-4.257684-2.694736-8.299789 3.503158-6.305684 15.090526 12.395789 20.102736 12.395789 1.185684 2.371368 9.108211 3.125895 9.108211 4.850526 4.096 1.401263 2.048 8.084211 2.048 11.856842 3.934316 0 2.586947 2.048 4.203789 4.850527 5.605053 2.694737 2.425263 13.150316 11.856842 15.198316 0-3.503158 9.108211-10.401684 3.503158-10.401685 0.538947-2.856421-6.090105-15.413895 3.072-13.635368 3.233684 0.646737 8.515368 0.862316 9.485474 4.742737 1.940211 7.653053 0.323368 11.802947 6.305684 17.192421 3.772632 7.545263 17.030737-0.862316 18.863158 2.748631 1.239579 0 9.754947 3.503158 9.754948 0.700632 3.826526-1.239579 4.958316-2.048 9.754947-2.048 0 4.850526-1.670737 10.940632-2.533053 14.982737-0.754526 3.287579-4.042105 6.359579-3.018105 10.617263-3.233684 0-2.694737 4.149895 0.700632 4.149895 0 6.359579-7.545263 5.389474-12.557474 4.850526 1.401263 4.796632 9.808842 14.982737 13.258105 17.246316 1.401263 4.257684 4.958316 11.641263 8.353684 13.904842 0.538947 3.179789 3.826526 11.856842 6.359579 13.096421 0 4.796632 16.491789 35.354947 12.557474 35.354947 1.509053 2.533053 3.233684 3.610947 2.748632 6.197895 6.251789 0 3.772632 15.198316 16.761263 15.198316 0.970105-1.832421 11.371789-5.497263 14.012631-5.497263 2.317474-4.688842 15.144421-8.299789 18.809263-8.29979-1.239579-3.772632 19.563789-12.719158 19.56379-14.551579 2.640842-0.916211 4.850526-6.305684 4.850526-9.323789 0-4.688842 3.503158-5.066105 3.503158-8.623158 5.605053-3.772632 6.952421-13.096421-0.700631-15.252211 1.347368 7.922526-5.551158 3.772632-4.581053 1.616843 1.509053-3.233684-0.754526-4.473263-3.072-7.168-2.640842-1.293474 0.538947-4.257684-2.101895-6.197895-3.503158 8.623158-10.293895 12.395789-17.461895 12.395789-1.994105-5.712842 4.311579 1.670737-0.808421-6.197894a9.323789 9.323789 0 0 1-1.293473-7.599158c-0.862316 0-0.754526-0.269474-1.347369-0.700632-1.239579 7.329684-0.485053 8.299789-5.605052 8.29979-0.916211-2.479158 4.042105-3.772632 0-7.706948a13.527579 13.527579 0 0 1-2.802527-7.545263c-2.263579-1.455158-7.706947-10.24-6.359579-12.611368 4.958316-8.838737 16.599579 11.317895 15.413895 14.713263 0.700632-0.215579 0.916211 0 0.700632 0.646737 14.012632-4.149895 25.815579 9.054316 39.774316 9.054315 2.533053 1.077895 10.24 2.586947 16.060631 2.263579a419.624421 419.624421 0 0 1-78.686316 282.570106z m-86.770526-378.933895c-1.077895-11.425684 5.928421-17.515789 10.509474-27.701895 7.868632-0.808421 10.725053 1.185684 10.509473 8.29979 5.605053 0 1.077895 6.467368 8.515369 3.610947 1.832421-2.533053 4.311579-3.233684 7.545263-2.209684 4.850526 0 6.144 2.748632 9.701053 2.748631 3.503158 6.898526 14.443789 4.850526 14.012631 17.300211 7.922526 0-7.006316 8.030316-7.006316 6.251789-8.892632 2.479158-10.886737-6.251789-14.659368-6.251789 0 8.138105-4.688842-1.401263-5.605053-1.401263 0 2.802526-26.947368 4.419368-31.420631 4.203789 0.646737-3.341474 1.239579-4.096-2.101895-4.850526zM571.984842 228.513684c-3.341474 1.616842-2.371368 4.473263-7.006316 2.748632 0-8.892632-2.317474-3.287579-10.778947-2.15579-1.562947 0.215579-12.288 3.826526-12.288 2.15579-0.107789 0 0.377263-3.557053 0-4.850527-2.209684-0.538947-0.646737 0-0.646737-1.347368-1.077895 0-9.108211 3.449263-9.10821 3.449263 6.844632 0-0.700632 5.605053-0.700632 7.545263 5.281684 0.646737 8.838737 2.802526 13.258105 2.802527 0 1.455158 12.072421-0.646737 13.689263-0.646737a20.749474 20.749474 0 0 0 12.503579-3.557053c4.473263-2.694737 1.077895-2.533053 1.077895-6.144z m42.576842 59.49979c6.952421 0 8.623158 2.263579 9.108211 9.701052 8.192 2.694737-5.605053 2.048-6.305684 2.048-0.107789 3.503158-5.12 10.455579 1.293473 8.569263 4.634947-1.455158 5.658947-1.131789 5.658948 3.880422 6.197895 0 14.874947 0.269474 18.162526-6.197895 3.341474 0 3.610947-3.179789 0-4.149895 0 3.664842 0.215579 3.449263-3.449263 3.449263 1.347368-7.491368 0.377263-13.850947-6.305684-13.850947 1.077895-3.179789-1.670737-5.658947-4.419369-7.760842-5.066105-3.934316 0.107789-4.850526 0.916211-9.539369-3.772632 0.916211-3.880421 4.096-9.054316 4.149895 0-1.077895 1.077895-4.419368 0.161684-4.850526 1.239579 0 6.197895-4.149895 0.538947-4.149895-2.425263 9.000421-10.132211 0.215579-8.946526 8.407579 0.862316 5.605053 2.640842 5.173895 2.640842 10.24z m-20.264421 19.402105c10.455579-0.215579 13.150316-6.197895 16.006737-14.389895 2.856421-8.084211-2.694737-3.934316-5.497263-3.610947-2.425263 1.185684-4.149895-4.042105-5.173895-1.616842-0.916211 1.994105 0.754526 4.311579 3.072 4.311579-0.646737 1.778526-14.551579 3.826526-7.706947 5.605052-0.862316 3.988211-4.419368 5.928421-0.700632 9.701053z m20.264421 9.539368c1.239579 9.108211 7.599158 3.934316 7.599158-2.694736h-6.359579c0.485053 2.694737 0 3.557053-1.239579 2.694736z m-202.051368 27.75579c5.281684-0.431158 7.599158-1.940211 7.599158-7.545263-4.850526 3.233684-6.413474 2.263579-7.545263 7.545263z m262.575158 13.20421c0.592842 2.317474-1.185684 2.748632-5.389474 1.401264 1.724632 3.341474 0.862316 4.096 3.610947 6.197894 1.077895-3.233684 7.275789-6.197895 1.778527-7.545263z m-1.239579 9.701053c0 4.311579-0.970105 6.305684-2.317474 1.401263-4.742737 0-2.425263 5.820632-2.425263 8.946526 8.892632 2.371368 7.976421-10.347789 4.742737-10.347789z m27.324631 18.701474c-3.988211 2.317474-2.155789 4.688842-7.491368 2.425263-2.263579-0.970105-4.742737-5.12-5.766737 0.269474 6.736842 0.808421 13.258105 11.964632 13.258105-2.694737z m137.539369 156.995368c-7.437474-0.538947-1.724632-1.616842-2.048-4.042105-5.712842 0-16.114526-19.994947-16.114527-24.953263-2.048-1.077895-3.826526-8.299789-3.503157-8.29979-1.616842-4.850526-8.192-8.946526-5.551158-13.850947-6.144-3.664842-12.665263-16.168421-14.659369-22.096842-3.664842-2.748632-6.251789-10.401684-6.251789-14.551579-4.311579 0-9.916632-12.557474-9.162106-17.300211-3.934316 0-4.958316-7.006316-9.054315-7.006316 1.994105-5.820632-25.977263-6.359579-30.72-6.898526 0.808421-4.688842-2.856421-7.599158-7.006316-7.599158 0 7.329684-15.791158 8.084211-21.126737 7.868632-3.826526-0.161684-12.395789-1.293474-12.395789-5.766737-2.586947-0.646737-6.359579 0-10.401685 0 0.916211-4.688842-8.730947-25.761684-14.012631-27.001263v2.101895c-3.934316 0.592842-28.618105-5.443368-28.618105-0.700632-2.964211 0-15.521684 4.419368-17.461895 8.299789-1.185684 0-12.557474 5.551158-12.557474 1.401264-2.856421 0-6.359579 1.455158-7.706947 4.149894-3.125895 0-6.413474 5.443368-8.353684 7.545264-5.389474-0.592842-1.562947-3.988211-7.006316 3.503157a41.121684 41.121684 0 0 1-4.850527 13.150316c1.724632 1.670737 1.616842 2.640842 0 4.850527-3.880421 3.072-6.036211 9.216-9.808842 11.048421-3.934316 6.467368-4.796632-0.431158-7.706947 6.844631-1.616842 4.042105-3.772632 7.060211-5.497263 10.293895a41.498947 41.498947 0 0 0-5.658948 24.414316c0 3.449263-3.664842 6.629053-2.856421 9.539368 1.185684 3.880421 3.557053 12.072421 2.856421 14.659369-2.694737 0-4.149895 9.323789 0.754527 11.749052 0 6.144 9.000421 24.683789 14.605473 28.402526 0 5.066105 10.24 15.898947 15.36 15.898948 1.994105 3.934316 23.066947 9.754947 23.066948 4.850526 8.569263 0 38.804211-5.497263 43.331368 3.503158 7.545263 0 10.401684-1.293474 17.408 2.048 0.970105 5.173895-0.538947 20.803368-4.149895 24.899368 0 7.006316 2.048 14.282105 7.653053 18.000843 0.431158 1.670737 4.419368 8.299789 5.605053 8.299789 2.155789 8.730947 4.581053 16.276211 2.96421 28.672-1.509053 11.317895-5.066105 17.946947-5.066105 28.079158-2.155789 0 2.101895 19.402105 4.149895 19.402105 0 8.784842 7.006316 16.707368 7.006316 26.300632a45.271579 45.271579 0 0 1 2.856421 11.749052c-2.155789 0 11.102316 26.462316 11.102315 28.402527 2.425263 0 2.694737 8.946526 4.850527 8.946526 0.431158 5.982316 2.856421 11.533474 2.856421 15.952842 2.802526 4.203789 14.336 0.700632 18.863158 0.700632 0-1.616842 21.018947-5.551158 23.713684-5.551158l10.509474-14.551579c0-6.413474 13.042526-18.755368 18.108631-22.096842 0-1.077895 6.413474-16.707368 5.605053-16.707369 0-10.832842 2.802526-18.000842 2.802526-27.594105 2.048 0 4.096-9.054316 8.353684-9.054316 1.239579-2.371368 4.634947-3.233684 7.006316-4.850526 0-5.928421 4.850526-10.509474 4.850526-17.946947 3.233684 0-2.048-23.174737-2.048-25.653895-6.144 0-1.401263-27.594105-1.401263-31.097263-3.934316 0 12.934737-18.701474 12.665263-17.569684 1.185684-4.850526 10.293895-11.587368 13.312-15.36 2.694737-3.503158 11.749053-10.132211 11.749053-14.120422 3.934316-1.994105 4.419368-5.605053 7.653053-7.653052 0-1.778526-2.209684-6.898526 2.802526-6.898526-1.293474-8.838737 6.305684-13.904842 6.305684-22.797474a72.757895 72.757895 0 0 1-20.264421 2.748631c0 1.185684-6.682947 1.347368-7.706947 1.293474z m-528.060632-70.063158l-2.155789-1.185684c-2.479158 10.671158 7.168 8.730947 7.168 2.317474-2.155789 1.616842-4.096 4.365474-5.012211-1.185685z m20.857263-1.185684c-2.155789 3.664842-5.605053 2.263579-9.054315 2.101895 2.101895 3.179789 9.000421 6.251789 12.557473 6.251789 2.317474 4.581053 9.323789 7.545263 14.874948 7.006316 7.329684-0.700632-0.269474-6.036211-1.616843-8.353684-7.114105 0-7.922526-6.090105-16.707368-7.006316z m42.576842 18.000842c-1.401263 4.203789 0 0.269474 0 3.503158-5.173895 0.107789-9.431579-2.802526-13.258105-2.802526 1.185684 2.155789 2.802526 3.664842 2.802526 5.551158-3.610947 1.401263-6.305684 0-9.754947 0 1.293474 2.533053 10.725053 2.910316 11.856842 0.700631 8.084211 0 8.407579-0.161684 16.060632 0.700632-0.269474-2.155789-5.497263-7.114105-7.706948-7.653053z m-38.157473 5.551158c-2.748632 9.323789 3.233684 7.383579 6.898526 7.383579 0.215579-4.096-2.048-6.575158-6.898526-7.383579z m5.389473 7.706947c2.479158-0.431158 5.066105-0.808421 7.545264-1.293473-1.293474-11.479579-6.844632-4.742737-7.545264 1.293473z m51.253895-7.706947c-2.640842 11.964632 2.748632 6.144 6.898526 6.144 0-4.311579-3.664842-6.144-6.898526-6.144z m-3.772631 0.700632v7.545263c3.125895-0.970105 4.473263-2.533053 7.545263-2.533053 0-3.233684-4.311579-5.012211-7.545263-5.01221z m-20.264421 40.043789c6.359579 0 6.090105-0.323368 7.599157-5.605053a117.490526 117.490526 0 0 0-5.712842-1.94021l-1.886315 7.545263z m484.837052 143.791158c9.916632 2.155789 7.976421 0.269474 5.928421-6.682947-4.634947 2.425263-5.928421 1.886316-5.928421 6.682947z" p-id="92964"></path></svg>