<?xml version="1.0" standalone="no"?><!DOCTYPE svg PUBLIC "-//W3C//DTD SVG 1.1//EN" "http://www.w3.org/Graphics/SVG/1.1/DTD/svg11.dtd"><svg t="1723538701056" class="icon" viewBox="0 0 1024 1024" version="1.1" xmlns="http://www.w3.org/2000/svg" p-id="4431" xmlns:xlink="http://www.w3.org/1999/xlink" width="64" height="64"><path d="M832 85.333333a106.666667 106.666667 0 0 0-91.946667 160.768 30.634667 30.634667 0 0 0-12.416 5.546667l-3.584 3.072-469.333333 469.333333a31.829333 31.829333 0 0 0-8.704 16.042667 106.666667 106.666667 0 1 0 37.973333 37.802667 30.634667 30.634667 0 0 0 12.373334-5.546667l3.584-3.072 469.333333-469.333333a31.829333 31.829333 0 0 0 8.704-16.042667A106.666667 106.666667 0 1 0 832 85.333333z m-640 682.666667a64 64 0 1 1 0 128 64 64 0 0 1 0-128z m640-640a64 64 0 1 1 0 128 64 64 0 0 1 0-128z" p-id="4432"></path></svg>