<?xml version="1.0" standalone="no"?><!DOCTYPE svg PUBLIC "-//W3C//DTD SVG 1.1//EN" "http://www.w3.org/Graphics/SVG/1.1/DTD/svg11.dtd"><svg t="1715397882566" class="icon" viewBox="0 0 1024 1024" version="1.1" xmlns="http://www.w3.org/2000/svg" p-id="4303" xmlns:xlink="http://www.w3.org/1999/xlink" width="600" height="600"><path d="M145.7664 531.7632c0 16.3328 12.5952 29.7472 27.9552 29.7472h69.4272c23.1936 0 41.984 19.8656 41.9328 44.4416 0 24.4736-18.7904 44.3904-41.9328 44.3904H173.7216c-61.6448 0-111.7696-52.8896-111.7696-118.4768v-296.448c0-65.4336 50.1248-118.4768 111.7696-118.4768h419.6864c61.7984 0 111.8208 53.0432 111.8208 118.4768v296.3456c0 65.536-50.0224 118.528-111.8208 118.528h-69.9392c-23.1424 0-41.984-19.968-41.8816-44.4928 0-24.5248 18.7392-44.4416 41.8816-44.4416h69.9392c15.4624 0 28.0064-13.2608 28.0064-29.696V235.4176c0-16.3328-12.544-29.6448-28.0064-29.6448H173.7216c-15.36 0-27.9552 13.2608-27.9552 29.6448v296.3456z m256.768-38.0928c0-16.3328 12.544-29.6448 27.9552-29.6448h69.4784c23.1424 0 41.8816-19.8656 41.8816-44.4928s-18.7904-44.4416-41.8816-44.4416H430.592c-61.8496 0-111.9232 53.0432-111.9232 118.528v296.2432c0 65.536 50.0736 118.6304 111.9232 118.6304h419.4816c61.7984 0 111.9744-53.0944 111.9744-118.6304V493.6704c0-65.4848-50.1248-118.528-111.9744-118.528h-69.8368c-23.1936-0.0512-41.984 19.8144-41.984 44.4416 0 24.5248 18.688 44.4928 41.728 44.4928h70.0928c15.4624 0 28.0064 13.2608 28.0064 29.6448v296.2432c0 16.4352-12.544 29.7984-28.0064 29.7984H430.592c-15.5136 0-27.9552-13.3632-27.9552-29.7984V493.6704h-0.1024z"  p-id="4304"></path></svg>