<svg t="1727344723432" class="icon" viewBox="0 0 1024 1024" version="1.1" xmlns="http://www.w3.org/2000/svg" p-id="79302" width="64" height="64"><path d="M384 425.984l297.984 171.989333-297.984 169.984 0-342.016zM896 854.016l0-512-768 0 0 512 768 0zM896 256q34.005333 0 59.989333 25.002667t25.984 61.013333l0 512q0 34.005333-25.984 59.008t-59.989333 25.002667l-768 0q-34.005333 0-59.989333-25.002667t-25.984-59.008l0-512q0-36.010667 25.984-61.013333t59.989333-25.002667l324.010667 0-139.989333-139.989333 29.994667-29.994667 169.984 169.984 169.984-169.984 29.994667 29.994667-139.989333 139.989333 324.010667 0z" p-id="79303"></path></svg>