<svg t="1769411998739" class="icon" viewBox="0 0 1024 1024" version="1.1" xmlns="http://www.w3.org/2000/svg" p-id="30727" width="48" height="48"><path d="M668.672 229.376h113.664c16.384 0 20.48-10.24 10.24-22.528L648.192 55.296c-12.288-12.288-17.408-7.168-17.408 9.216v120.832c0 24.576 13.312 44.032 37.888 44.032z m0 0" p-id="30728"></path><path d="M468.992 705.536H237.568c-27.648 0-50.176-22.528-50.176-50.176s22.528-50.176 50.176-50.176H506.88c48.128-74.752 139.264-125.952 239.616-125.952 19.456 0 33.792 5.12 59.392 9.216V321.536c0-25.6-44.032-40.96-68.608-40.96H588.8c-25.6 0-33.792-22.528-33.792-47.104V84.992c0-25.6-30.72-43.008-54.272-43.008H131.072c-49.152 0-64.512 38.912-64.512 87.04v709.632c0 49.152 15.36 79.872 64.512 79.872h390.144c-35.84-50.176-56.32-103.424-56.32-164.864 0-16.384 1.024-35.84 4.096-48.128zM237.568 392.192h379.904c27.648 0 50.176 22.528 50.176 50.176s-22.528 50.176-50.176 50.176H237.568c-27.648 0-50.176-22.528-50.176-50.176s22.528-50.176 50.176-50.176z m0 0" p-id="30729"></path><path d="M742.4 531.456c-128 0-227.328 99.328-227.328 226.304 0 122.88 104.448 226.304 227.328 226.304 128 0 227.328-99.328 227.328-226.304 1.024-124.928-101.376-226.304-227.328-226.304z m132.096 249.856H737.28c-13.312 0-18.432-1.024-18.432-15.36v-138.24c0-13.312 11.264-25.6 25.6-25.6 13.312 0 25.6 11.264 25.6 25.6v103.424h106.496c13.312 0 25.6 11.264 25.6 25.6-2.048 12.288-13.312 24.576-27.648 24.576z m0 0" p-id="30730"></path></svg>