<?xml version="1.0" standalone="no"?><!DOCTYPE svg PUBLIC "-//W3C//DTD SVG 1.1//EN" "http://www.w3.org/Graphics/SVG/1.1/DTD/svg11.dtd"><svg t="1733908504740" class="icon" viewBox="0 0 1024 1024" version="1.1" xmlns="http://www.w3.org/2000/svg" p-id="1466" xmlns:xlink="http://www.w3.org/1999/xlink" width="200" height="200"><path d="M424.720588 1023.868224H91.015389a54.03749 54.03749 0 0 1-53.089463-54.037489V53.089463A53.089463 53.089463 0 0 1 91.015389 0h291.99205a53.089463 53.089463 0 0 1 53.089463 53.089463 53.089463 53.089463 0 0 1-53.089463 54.03749H145.052879v809.614318h284.40784a54.03749 54.03749 0 0 1 54.03749 53.089464 54.985516 54.985516 0 0 1-58.777621 54.037489z"  p-id="1467"></path><path d="M968.887589 474.013067L739.465265 261.655213a53.089463 53.089463 0 1 0-72.049986 78.686169L796.346833 457.896623H307.165348a54.03749 54.03749 0 0 0-53.089464 54.037489 53.089463 53.089463 0 0 0 53.089464 56.881568H796.346833L667.415279 683.526842a54.03749 54.03749 0 0 0 0 75.842091 54.985516 54.985516 0 0 0 34.12894 17.06447 52.141437 52.141437 0 0 0 37.921046-18.012496l229.422324-207.617723A53.089463 53.089463 0 0 0 985.95206 511.934112a56.881568 56.881568 0 0 0-17.064471-37.921045z"  p-id="1468"></path></svg>