<svg t="1767153454584" class="icon" viewBox="0 0 1024 1024" version="1.1" xmlns="http://www.w3.org/2000/svg" p-id="9335" width="200" height="200"><path d="M603.282286 460.288a192.731429 192.731429 0 0 0-82.944 19.894857 24.064 24.064 0 0 0-5.266286 39.862857l88.137143 84.845715-31.085714 29.915428-88.137143-84.845714a24.210286 24.210286 0 0 0-18.139429-7.314286 24.941714 24.941714 0 0 0-23.332571 14.994286 170.276571 170.276571 0 0 0 33.718857 201.947428 177.737143 177.737143 0 0 0 127.049143 49.883429 157.769143 157.769143 0 0 0 59.611428-9.947429l147.748572 137.142858 18.139428 17.408a25.819429 25.819429 0 0 0 36.571429 0l72.557714-69.778286a23.552 23.552 0 0 0 0-34.962286l-18.139428-17.408-147.748572-137.142857a171.739429 171.739429 0 0 0-41.472-182.052571 184.905143 184.905143 0 0 0-127.268571-52.443429z m119.296 217.088a46.08 46.08 0 0 0 13.019428 52.370286l147.748572 137.216-36.571429 34.889143-147.748571-137.216a52.297143 52.297143 0 0 0-36.571429-14.994286 51.2 51.2 0 0 0-18.139428 2.486857 126.683429 126.683429 0 0 1-43.885715 7.314286 124.342857 124.342857 0 0 1-90.770285-37.376 118.710857 118.710857 0 0 1-36.571429-109.714286l59.611429 57.344a51.2 51.2 0 0 0 72.704 0l31.085714-29.915429a46.884571 46.884571 0 0 0 0-69.778285l-59.611429-57.344a74.386286 74.386286 0 0 1 23.332572-2.486857 124.342857 124.342857 0 0 1 90.770285 37.376 115.858286 115.858286 0 0 1 31.597715 129.828571z m-269.531429-242.102857a25.526857 25.526857 0 0 0-25.965714-25.014857H271.433143a25.014857 25.014857 0 1 0 0 49.956571h155.501714a27.428571 27.428571 0 0 0 26.112-24.941714z m-106.276571 124.342857h-69.924572a25.161143 25.161143 0 1 0 0 49.956571h69.924572a25.161143 25.161143 0 1 0 0-49.956571z m0 149.650286h-69.924572a25.234286 25.234286 0 1 0 0 49.956571h69.924572a25.234286 25.234286 0 1 0 0-49.956571zM271.579429 310.198857h466.724571a25.014857 25.014857 0 1 0 0-49.956571h-466.651429a25.014857 25.014857 0 1 0 0 49.956571zM893.878857 60.854857H115.931429a27.282286 27.282286 0 0 0-25.965715 24.868572v848.237714a25.526857 25.526857 0 0 0 25.965715 24.941714h388.973714a25.014857 25.014857 0 1 0 0-49.956571H141.750857V111.104h726.016v374.125714a25.965714 25.965714 0 0 0 51.931429 0V86.162286a25.6 25.6 0 0 0-25.965715-24.868572z"  p-id="9336"></path></svg>