<?xml version="1.0" standalone="no"?><!DOCTYPE svg PUBLIC "-//W3C//DTD SVG 1.1//EN" "http://www.w3.org/Graphics/SVG/1.1/DTD/svg11.dtd"><svg t="1725588250984" class="icon" viewBox="0 0 1024 1024" version="1.1" xmlns="http://www.w3.org/2000/svg" p-id="1477" xmlns:xlink="http://www.w3.org/1999/xlink" width="200" height="200"><path d="M283.172571 50.724571v292.900572h457.618286l0.073143-292.900572h54.930286v292.900572h165.888l3.766857 0.292571a27.465143 27.465143 0 0 1 23.515428 23.990857l0.219429 3.730286-0.036571 299.739429-54.966858-30.354286v-242.432H92.123429v494.299429l514.998857-0.036572v39.131429l0.365714 4.388571a24.246857 24.246857 0 0 0 5.595429 11.52l-548.425143-0.073143-3.766857-0.256a27.465143 27.465143 0 0 1-23.552-23.990857l-0.182858-3.766857V371.126857l0.256-3.766857a27.465143 27.465143 0 0 1 24.027429-23.515429l3.730286-0.219428h163.108571V50.724571h54.930286zM607.085714 746.422857v54.966857h-190.061714V746.422857l190.061714-0.036571z m-216.356571-256.256v54.930286H189.330286v-54.930286h201.398857z m219.684571 0v54.930286h-128.182857v-54.930286h128.182857z"  p-id="1478"></path><path d="M813.458286 630.857143a19.2 19.2 0 0 1 15.762285-1.353143l3.035429 1.353143 150.857143 84.589714a19.2 19.2 0 0 1 9.508571 13.312l0.292572 3.437714v169.142858a19.2 19.2 0 0 1-6.948572 14.811428l-2.852571 1.938286-150.857143 84.553143a19.2 19.2 0 0 1-15.798857 1.353143l-2.998857-1.353143-150.857143-84.553143a19.2 19.2 0 0 1-9.508572-13.348572l-0.292571-3.401142V732.16c0-5.778286 2.596571-11.190857 6.948571-14.811429l2.852572-1.938285 150.857143-84.589715z m9.398857 38.765714l-131.657143 73.801143v146.651429l131.657143 73.801142 131.657143-73.801142v-146.651429l-131.657143-73.801143z m0 68.498286c43.373714 0 78.628571 35.291429 78.628571 78.628571 0 43.373714-35.254857 78.628571-78.628571 78.628572a78.701714 78.701714 0 0 1-78.628572-78.628572c0-43.337143 35.254857-78.628571 78.628572-78.628571z m0 38.4c-22.162286 0-40.228571 18.066286-40.228572 40.228571 0 22.198857 18.066286 40.228571 40.228572 40.228572 22.162286 0 40.228571-18.029714 40.228571-40.228572 0-22.162286-18.066286-40.228571-40.228571-40.228571z"  p-id="1479"></path></svg>