<svg t="1769484572250" class="icon" viewBox="0 0 1024 1024" version="1.1" xmlns="http://www.w3.org/2000/svg" p-id="63841" width="48" height="48"><path d="M476.16 128.448a16 16 0 0 1 7.744 0l323.072 81.152c15.808 3.968 16.256 26.304 0.64 30.912L484.48 335.104a16 16 0 0 1-8.96 0L152.384 240.512c-15.616-4.608-15.168-26.88 0.64-30.912l323.008-81.152h0.128zM512 407.232a32 32 0 0 1 23.04-30.72l320-94.08a32 32 0 0 1 40.96 30.72v495.04a32 32 0 0 1-21.888 30.4l-320 106.24A32 32 0 0 1 512 914.432V407.232zM64 313.472a32 32 0 0 1 40.96-30.72l320.128 93.312a32 32 0 0 1 23.04 30.72v507.584a32 32 0 0 1-42.112 30.4l-320.128-106.688A32 32 0 0 1 64 807.744V313.472z" p-id="63842"></path></svg>