<svg t="1727345488839" class="icon" viewBox="0 0 1024 1024" version="1.1" xmlns="http://www.w3.org/2000/svg" p-id="89434" width="64" height="64"><path d="M908.288 108.544H115.712A51.968 51.968 0 0 0 64 160.192v562.56c0 28.288 23.36 51.648 51.712 51.648h792.576a51.968 51.968 0 0 0 51.712-51.648v-562.56a51.968 51.968 0 0 0-51.712-51.648z m-83.648 388.992h-90.304c-20.864 0-41.664-11.584-50.944-30.08L588.416 293.632l-97.28 294.144c-6.912 20.864-23.168 37.056-43.968 39.36h-11.584c-20.864 0-39.36-9.28-48.64-27.776l-78.72-127.36H199.36a35.648 35.648 0 0 1-34.752-34.752c0-18.56 16.192-34.752 34.752-34.752h127.36c11.584 0 23.168 6.912 30.08 16.192L433.28 541.504l97.28-294.144a60.8 60.8 0 0 1 46.272-41.664 54.4 54.4 0 0 1 60.224 30.08l104.256 189.952h83.328c18.56 0 34.752 16.192 34.752 34.752 0 18.496-16.192 37.056-34.752 37.056z" fill-opacity=".8" p-id="89435"></path><path d="M256.32 832.96h526.4c11.008 0 25.6 31.104 25.6 49.92 0 18.816-14.592 52.096-25.6 52.096H256.32c-24.896 0-39.424-33.28-39.424-52.096 0-18.816 14.528-49.92 32.512-49.92h6.912z" fill-opacity=".5" p-id="89436"></path></svg>