<svg t="1769483892951" class="icon" viewBox="0 0 1024 1024" version="1.1" xmlns="http://www.w3.org/2000/svg" p-id="40476" width="48" height="48"><path d="M883.2 64A76.8 76.8 0 0 1 960 140.8v486.4a76.8 76.8 0 0 1-76.8 76.8H140.8A76.8 76.8 0 0 1 64 627.2V140.8A76.8 76.8 0 0 1 140.8 64h742.4z m0 76.8H140.8v486.4h742.4V140.8zM414.528 271.04l106.304 189.312 109.632-94.528 93.504 59.776h107.264v70.4H703.36l-66.624-42.624-135.04 116.608L403.2 394.56 318.656 496H192v-70.4h93.568l128.96-154.56zM550.4 742.4v102.336l217.6 0.064v76.8H256v-76.8l217.6-0.064V742.4h76.8z" p-id="40477"></path></svg>