<svg t="1727403201398" class="icon" viewBox="0 0 1024 1024" version="1.1" xmlns="http://www.w3.org/2000/svg" p-id="8643" width="64" height="64"><path d="M618.666667 384c59.733333 0 106.666667-46.933333 106.666666-106.666667s-46.933333-106.666667-106.666666-106.666666-106.666667 46.933333-106.666667 106.666666c0 17.066667 4.266667 32 10.666667 46.933334l-40.533334 40.533333c-25.6-14.933333-55.466667-23.466667-87.466666-23.466667-36.266667 0-68.266667 10.666667-96 29.866667L204.8 277.333333c4.266667-10.666667 8.533333-21.333333 8.533333-32C213.333333 204.8 179.2 170.666667 138.666667 170.666667S64 204.8 64 245.333333 98.133333 320 138.666667 320c6.4 0 10.666667 0 17.066666-2.133333l98.133334 98.133333c-19.2 27.733333-29.866667 59.733333-29.866667 96 0 32 8.533333 61.866667 23.466667 87.466667l-66.133334 66.133333c-6.4-2.133333-12.8-4.266667-21.333333-4.266667C119.466667 661.333333 85.333333 695.466667 85.333333 736S119.466667 810.666667 160 810.666667s74.666667-34.133333 74.666667-74.666667c0-8.533333-2.133333-19.2-4.266667-27.733333l61.866667-61.866667c27.733333 21.333333 64 36.266667 104.533333 36.266667 36.266667 0 68.266667-10.666667 96-29.866667l44.8 44.8c-2.133333-10.666667-4.266667-23.466667-4.266667-36.266667 0-17.066667 2.133333-34.133333 4.266667-51.2l-2.133333-2.133333c2.133333-2.133333 4.266667-6.4 6.4-10.666667 4.266667-19.2 10.666667-36.266667 21.333333-53.333333 2.133333-10.666667 4.266667-21.333333 4.266667-32 0-38.4-12.8-74.666667-36.266667-104.533333l38.4-38.4c12.8 10.666667 29.866667 14.933333 49.066667 14.933333z m0-149.333333c23.466667 0 42.666667 19.2 42.666666 42.666666s-19.2 42.666667-42.666666 42.666667-42.666667-19.2-42.666667-42.666667 19.2-42.666667 42.666667-42.666666zM288 544c-17.066667 0-32-14.933333-32-32s14.933333-32 32-32 32 14.933333 32 32-14.933333 32-32 32z m106.666667 0c-17.066667 0-32-14.933333-32-32s14.933333-32 32-32 32 14.933333 32 32-14.933333 32-32 32zM533.333333 512c0 17.066667-14.933333 32-32 32S469.333333 529.066667 469.333333 512s14.933333-32 32-32 32 14.933333 32 32zM789.333333 469.333333c-106.666667 0-192 85.333333-192 192s85.333333 192 192 192 192-85.333333 192-192-85.333333-192-192-192z m123.733334 273.066667c-4.266667 4.266667-10.666667 8.533333-12.8 8.533333-2.133333 0-2.133333 0-2.133334 2.133334-2.133333 0-10.666667 4.266667-17.066666 4.266666H789.333333c-91.733333 0-89.6 0-100.266666-4.266666-10.666667-2.133333-19.2-8.533333-27.733334-17.066667-12.8-12.8-19.2-29.866667-19.2-49.066667 0-6.4 0-14.933333 4.266667-21.333333 2.133333-8.533333 4.266667-10.666667 12.8-23.466667 2.133333-2.133333 10.666667-10.666667 14.933333-12.8 4.266667-4.266667 21.333333-10.666667 23.466667-10.666666 2.133333 0 2.133333-2.133333 4.266667-4.266667 2.133333-10.666667 4.266667-12.8 6.4-19.2 4.266667-12.8 14.933333-23.466667 25.6-34.133333 2.133333-2.133333 4.266667-4.266667 6.4-4.266667l2.133333-2.133333c8.533333-6.4 25.6-12.8 36.266667-14.933334 12.8-2.133333 27.733333 0 38.4 2.133334 8.533333 2.133333 10.666667 2.133333 10.666666 4.266666 2.133333 2.133333 4.266667 2.133333 6.4 4.266667 8.533333 4.266667 19.2 12.8 25.6 19.2 4.266667 6.4 10.666667 12.8 12.8 14.933333 0 0 0 2.133333 2.133334 2.133334 0 2.133333 2.133333 2.133333 2.133333 4.266666s2.133333 4.266667 2.133333 4.266667c2.133333 4.266667 2.133333 4.266667-8.533333 4.266667-4.266667 0-10.666667 0-12.8 2.133333H853.333333l-4.266666-4.266667c-4.266667-6.4-8.533333-12.8-14.933334-17.066666-8.533333-6.4-17.066667-10.666667-27.733333-14.933334-6.4-2.133333-8.533333-2.133333-14.933333-2.133333h-12.8c-2.133333 0-4.266667 2.133333-6.4 2.133333-8.533333 2.133333-19.2 8.533333-23.466667 12.8-6.4 6.4-10.666667 12.8-14.933333 19.2-2.133333 4.266667-6.4 14.933333-4.266667 14.933334 0 0 2.133333 2.133333 6.4 2.133333 6.4 2.133333 12.8 6.4 19.2 10.666667 6.4 4.266667 17.066667 12.8 17.066667 14.933333l6.4 6.4c2.133333 2.133333 6.4 4.266667 6.4 6.4 0 0-4.266667 4.266667-6.4 8.533333-8.533333 8.533333-10.666667 10.666667-12.8 10.666667l-4.266667-4.266667-6.4-6.4-6.4-6.4c-10.666667-10.666667-23.466667-14.933333-34.133333-14.933333-8.533333 0-21.333333 4.266667-27.733334 10.666667-6.4 4.266667-12.8 14.933333-14.933333 21.333333-2.133333 4.266667 0 17.066667 0 21.333333 4.266667 14.933333 17.066667 27.733333 32 29.866667 4.266667 0 10.666667 0 14.933333 2.133333h10.666667l4.266667-4.266666 10.666666-10.666667c19.2-17.066667 38.4-36.266667 55.466667-53.333333 8.533333-8.533333 23.466667-23.466667 32-27.733334 4.266667-2.133333 10.666667-6.4 14.933333-8.533333 2.133333 0 4.266667-2.133333 6.4-2.133333 4.266667-2.133333 12.8-2.133333 23.466667-2.133334h10.666667c2.133333 0 12.8 4.266667 14.933333 4.266667 0 0 2.133333 0 2.133333 2.133333 2.133333 2.133333 6.4 4.266667 12.8 8.533334s8.533333 8.533333 10.666667 10.666666c0 2.133333 2.133333 2.133333 2.133333 4.266667 2.133333 2.133333 6.4 10.666667 6.4 10.666667v2.133333c2.133333 2.133333 4.266667 17.066667 4.266667 21.333333-2.133333 27.733333-12.8 49.066667-27.733333 61.866667z" p-id="8644"></path><path d="M902.4 661.333333c-6.4-8.533333-12.8-10.666667-23.466667-14.933333-4.266667 0-12.8-2.133333-14.933333 0 0 0-2.133333 0-4.266667 2.133333-2.133333 0-4.266667 2.133333-8.533333 2.133334-4.266667 2.133333-12.8 8.533333-12.8 8.533333l-4.266667 4.266667c-4.266667 2.133333-27.733333 27.733333-34.133333 34.133333-2.133333 2.133333-10.666667 10.666667-19.2 17.066667l-14.933333 14.933333h102.4c4.266667 0 8.533333 0 12.8-2.133333 8.533333-2.133333 17.066667-6.4 21.333333-14.933334 2.133333-4.266667 4.266667-8.533333 6.4-14.933333 2.133333-4.266667 2.133333-6.4 2.133333-12.8 0-8.533333-2.133333-14.933333-8.533333-23.466667z" p-id="8645"></path></svg>