<svg t="1727343636491" class="icon" viewBox="0 0 1024 1024" version="1.1" xmlns="http://www.w3.org/2000/svg" p-id="64419" width="64" height="64"><path d="M838.4 108.8c0-44.8-32-76.8-70.4-76.8H70.4C32 32 0 64 0 108.8v499.2c0 44.8 32 76.8 70.4 76.8h70.4v192l185.6-192H768c38.4 0 70.4-32 70.4-76.8V108.8z" p-id="64420"></path><path d="M953.6 147.2c38.4 0 70.4 32 70.4 76.8v499.2c0 44.8-32 76.8-70.4 76.8h-70.4v192l-185.6-192H364.8v-76.8h358.4l76.8 83.2v-83.2h147.2V224h-70.4V147.2h76.8zM236.8 300.8c32 0 57.6 25.6 57.6 57.6s-25.6 57.6-57.6 57.6-57.6-25.6-57.6-57.6c6.4-32 25.6-57.6 57.6-57.6z m185.6 0c32 0 57.6 25.6 57.6 57.6s-25.6 57.6-57.6 57.6-57.6-25.6-57.6-57.6 25.6-57.6 57.6-57.6z m179.2 0c32 0 57.6 25.6 57.6 57.6s-25.6 57.6-57.6 57.6-51.2-25.6-51.2-57.6 25.6-57.6 51.2-57.6z" p-id="64421"></path></svg>