<svg t="1727406720423" class="icon" viewBox="0 0 1024 1024" version="1.1" xmlns="http://www.w3.org/2000/svg" p-id="81936" width="64" height="64"><path d="M625.493333 555.306667A255.744 255.744 0 0 0 512 768c0 79.829333 36.522667 151.125333 93.824 198.058667C385.877333 1009.322667 42.666667 958.634667 42.666667 839.68c0-175.061333 166.4-352 371.541333-352 78.506667 0 151.296 25.856 211.285333 67.626667z m-13.354666-312.021334c0 110.72-89.6 200.576-200.149334 200.576a200.448 200.448 0 0 1-200.234666-200.576A200.490667 200.490667 0 0 1 411.861333 42.666667a200.448 200.448 0 0 1 200.277334 200.618666z m16 411.093334a32 32 0 0 1 64 0v248.874666a32 32 0 1 1-64 0v-248.874666z m125.653333-100.394667a32 32 0 0 1 64 0v349.269333a32 32 0 0 1-64 0v-349.269333zM879.36 704a32 32 0 0 1 64 0v199.253333a32 32 0 1 1-64 0V704z" p-id="81937"></path></svg>