<svg t="1773630716560" class="icon" viewBox="0 0 1024 1024" version="1.1" xmlns="http://www.w3.org/2000/svg" p-id="9021" width="44" height="44"><path d="M591.01184 46.08H392.02816l-0.01024 88.85248-1.7408 0.54272a328.87808 328.87808 0 0 0-50.00192 20.736l-1.57696 0.82944-62.83264-62.84288-140.70784 140.6976 62.84288 62.84288-0.8192 1.57696a328.87808 328.87808 0 0 0-20.74624 50.00192l-0.54272 1.7408H87.04v198.99392h88.85248l0.54272 1.7408a328.87808 328.87808 0 0 0 20.736 50.01216l0.82944 1.56672-62.84288 62.84288 140.6976 140.70784 62.84288-62.85312 1.57696 0.83968c16.05632 8.26368 32.768 15.19616 50.00192 20.736l1.7408 0.53248V855.04h198.99392v-88.86272l1.7408-0.53248a328.87808 328.87808 0 0 0 50.01216-20.736l1.56672-0.83968 62.84288 62.85312 140.70784-140.6976-62.85312-62.85312 0.83968-1.56672a328.87808 328.87808 0 0 0 20.736-50.00192l0.53248-1.75104H896V351.06816l-88.86272-0.01024-0.53248-1.7408a328.87808 328.87808 0 0 0-20.736-50.00192l-0.83968-1.57696 62.85312-62.83264-140.6976-140.70784-62.85312 62.84288-1.56672-0.8192a328.87808 328.87808 0 0 0-50.00192-20.74624l-1.75104-0.54272V46.08z m-30.72 30.72v81.29536l11.27424 3.11296a298.21952 298.21952 0 0 1 67.93216 28.16l10.17856 5.77536 57.4976-57.50784 97.25952 97.25952-57.4976 57.50784 5.77536 10.17856a298.21952 298.21952 0 0 1 28.16 67.93216l3.11296 11.264H865.28v137.55392h-81.29536l-3.11296 11.27424a298.21952 298.21952 0 0 1-28.16 67.93216l-5.77536 10.17856 57.4976 57.4976-97.25952 97.25952-57.4976-57.4976-10.17856 5.77536a298.21952 298.21952 0 0 1-67.93216 28.16l-11.264 3.11296-0.01024 81.29536H422.73792v-81.29536l-11.264-3.11296a298.21952 298.21952 0 0 1-67.93216-28.16l-10.17856-5.77536-57.50784 57.4976-97.25952-97.25952 57.50784-57.4976-5.77536-10.17856a298.21952 298.21952 0 0 1-28.16-67.93216l-3.11296-11.264-81.3056-0.01024V381.77792h81.3056l3.11296-11.264a298.21952 298.21952 0 0 1 28.16-67.93216l5.77536-10.17856-57.50784-57.50784 97.25952-97.25952 57.50784 57.50784 10.17856-5.77536a298.21952 298.21952 0 0 1 67.93216-28.16l11.264-3.11296V76.8h137.55392z" p-id="9022"></path><path d="M486.4 281.6c-96.14336 0-174.08 77.93664-174.08 174.08s77.93664 174.08 174.08 174.08 174.08-77.93664 174.08-174.08-77.93664-174.08-174.08-174.08z m0 30.72c79.17568 0 143.36 64.18432 143.36 143.36s-64.18432 143.36-143.36 143.36-143.36-64.18432-143.36-143.36 64.18432-143.36 143.36-143.36z"  p-id="9023"></path><path d="M486.4 343.04c-62.208 0-112.64 50.432-112.64 112.64s50.432 112.64 112.64 112.64 112.64-50.432 112.64-112.64-50.432-112.64-112.64-112.64z m0 30.72a81.92 81.92 0 1 1 0 163.84 81.92 81.92 0 0 1 0-163.84z" p-id="9024"></path><path d="M788.48 921.6H665.6v40.96h122.88zM727.04 532.48L573.44 683.89888h92.16V829.44h122.88V683.89888h92.16z"  p-id="9025"></path><path d="M819.2 890.88v102.4H634.88V890.88h184.32z m-30.72 30.72H665.6v40.96h122.88v-40.96zM498.51392 714.61888l228.52608-225.28 228.52608 225.28H819.18976L819.2 860.16H634.88l-0.01024-145.54112H498.51392zM727.04 532.48L573.44 683.89888h92.16V829.44h122.88V683.89888h92.16L727.04 532.48z" p-id="9026"></path></svg>