<svg t="1737706208008" class="icon" viewBox="0 0 1024 1024" version="1.1" xmlns="http://www.w3.org/2000/svg" p-id="5028" width="48" height="48"><path d="M512 768c-17.664 0-32-14.304-32-32v-96c0-17.696 14.336-32 32-32s32 14.304 32 32v96c0 17.696-14.336 32-32 32z" p-id="5029"></path><path d="M832 960H192c-52.928 0-96-43.072-96-96V480c0-52.928 43.072-96 96-96h640c52.928 0 96 43.072 96 96v384c0 52.928-43.072 96-96 96zM192 448c-17.632 0-32 14.368-32 32v384c0 17.664 14.368 32 32 32h640c17.664 0 32-14.336 32-32V480c0-17.632-14.336-32-32-32H192z" p-id="5030"></path><path d="M288 416c-17.664 0-32-14.336-32-32v-64.672c0-160.064 135.392-255.744 266.304-255.744 100.672 0 198.72 59.872 244.032 148.992 8 15.744 1.728 35.008-14.016 43.04-15.776 8-35.04 1.696-43.04-14.016-34.656-68.16-109.792-113.984-186.976-113.984C422.848 127.584 320 199.296 320 319.328V384c0 17.664-14.336 32-32 32z" p-id="5031"></path></svg>