<svg t="1737706171479" class="icon" viewBox="0 0 1024 1024" version="1.1" xmlns="http://www.w3.org/2000/svg" p-id="4872" width="48" height="48"><path d="M512 768c-17.664 0-32-14.304-32-32v-96c0-17.696 14.336-32 32-32s32 14.304 32 32v96c0 17.696-14.336 32-32 32z" p-id="4873"></path><path d="M832 960H192c-52.928 0-96-43.072-96-96V512c0-52.928 43.072-96 96-96h640c52.928 0 96 43.072 96 96v352c0 52.928-43.072 96-96 96zM192 480c-17.632 0-32 14.368-32 32v352c0 17.664 14.368 32 32 32h640c17.664 0 32-14.336 32-32V512c0-17.632-14.336-32-32-32H192z" p-id="4874"></path><path d="M736 480c-17.696 0-32-14.336-32-32V318.016C704 209.248 601.76 128 510.336 128 416.768 128 320 198.912 320 317.568V448c0 17.664-14.336 32-32 32s-32-14.336-32-32V317.568C256 158.848 385.312 64 510.336 64 632.224 64 768 168.32 768 318.016V448c0 17.664-14.304 32-32 32z" p-id="4875"></path></svg>