<svg t="1704853957347" class="icon" viewBox="0 0 1024 1024" version="1.1" xmlns="http://www.w3.org/2000/svg" p-id="7939" width="32" height="32"><path d="M478.9 65.1l-0.4 446.7 0.1 3.2c0.1 1.2 0.3 2.4 0.5 3.6-1.1 9 1.5 18 7.2 25l2.4 2.7 303.6 314.6C599.3 1015.3 317.6 984 163.2 791S40.1 316.3 233.1 161.9c70.3-56.3 156-90 245.8-96.8z m101.9 480l378-0.1a445.51 445.51 0 0 1-117.4 270L580.9 545.1l378-0.1h-378v0.1h-0.1z m-35.1-67.2l0.3-412.8c220.7 16.6 396.1 192 412.8 412.7l-413.1 0.1 0.3-412.8-0.3 412.8z" p-id="7940"></path></svg>