<svg t="1727408074395" class="icon" viewBox="0 0 1024 1024" version="1.1" xmlns="http://www.w3.org/2000/svg" p-id="97935" width="64" height="64"><path d="M106.6 428h84c23.2 0 42-18.8 42-42s-18.8-42-42-42h-84c-23.2 0-42 18.8-42 42-0.2 23.3 18.6 42 42 42z m125.6 210c0-23.2-18.8-42-42-42h-84c-23.2 0-42 18.8-42 42s18.8 42 42 42h84c23.3-0.1 42-18.9 42-42z" p-id="97936"></path><path d="M903.7 64.2H204.2c-30.9 0-56 25-56 56v209.9h42c30.9 0 56 25 56 56s-25 56-56 56h-42V582h42c30.9 0 56 25 56 56s-25 56-56 56h-42v209.7c0 30.9 25 56 56 56h699.5c30.9 0 56-25 56-56V120c0-30.8-24.9-55.8-56-55.8zM567.6 845c-16.9 0-158.4-77.3-158.4-98.2 0-20.9 110.1-398.1 110.1-398.1L429 236.3s-13.4-24.9 26.6-24.9h225.6c40 0 19.8 24.9 19.8 24.9l-85.3 112.4s110.1 379.4 110.1 398.1c0.2 18.5-141.4 98.2-158.2 98.2z m182.7-273.9L720 614.4l-80.5-259.2 111.6 185.4c5.3 8.8 4.8 22.4-0.8 30.5z" p-id="97937"></path></svg>