<svg t="1769482846480" class="icon" viewBox="0 0 1024 1024" version="1.1" xmlns="http://www.w3.org/2000/svg" p-id="18314" width="48" height="48"><path d="M869.934545 798.021818a85.178182 85.178182 0 0 0-78.661818 51.2h-162.909091a118.458182 118.458182 0 0 0-83.549091-96.814545v-142.196364h204.8a102.4 102.4 0 1 0 0-204.567273H272.989091a102.4 102.4 0 1 0 0 204.567273h204.567273v142.196364a119.156364 119.156364 0 0 0-83.549091 96.814545H232.727273a85.178182 85.178182 0 1 0 0 68.189091h172.683636a118.690909 118.690909 0 0 0 214.807273 0H791.272727a85.178182 85.178182 0 1 0 78.196364-119.389091z m-596.945454-256a34.210909 34.210909 0 0 1 0-68.189091h477.556364a34.210909 34.210909 0 0 1 0 68.189091zM512 917.410909a51.2 51.2 0 1 1 51.2-51.2 51.432727 51.432727 0 0 1-51.2 51.2z" p-id="18315"></path><path d="M256 746.821818h97.745455a34.210909 34.210909 0 0 0 0-68.189091H256a187.578182 187.578182 0 0 1-29.323636-372.363636l20.48-3.258182 6.516363-19.316364a272.989091 272.989091 0 0 1 516.421818 0l6.749091 19.316364 20.247273 3.258182a187.578182 187.578182 0 0 1-29.323636 372.363636h-103.796364a34.210909 34.210909 0 1 0 0 68.189091H768a256 256 0 0 0 59.578182-504.785454 341.410909 341.410909 0 0 0-631.621818 0A256 256 0 0 0 256 746.821818z" p-id="18316"></path></svg>