<svg t="1747105435530" class="icon" viewBox="0 0 1024 1024" version="1.1" xmlns="http://www.w3.org/2000/svg" p-id="7298" width="81" height="81"><path d="M928 512c-11.008 0.1024-21.9136 2.1504-32.256 5.9392l-145.3568-218.0608c11.4688-17.8688 17.6128-38.656 17.6128-59.8528C768 178.1248 717.8752 128 655.9744 128c-61.8496 0-112.0256 50.1248-112.0256 112.0256 0 28.2624 10.8544 53.8624 28.16 73.5744l-146.5344 268.6464c-13.5168-3.9424-27.5456-6.0416-41.6256-6.1952-31.7952 0-61.3376 9.6256-86.272 25.6512l-117.3504-140.8c7.168-13.4144 11.6224-28.5696 11.6224-44.8512 0-53.0432-43.008-96-96-96S0 363.008 0 416.0512C0 469.0432 43.008 512.0512 96 512c12.8512 0 25.5488-2.56 37.376-7.5776l118.2208 141.8752a159.67744 159.67744 0 0 0-27.5968 89.7024C224 824.2176 295.7824 896 384 896s160-71.7824 160-160c0-50.7904-24.2176-95.5904-61.2352-124.8768l143.7696-263.5264c9.472 2.6112 19.2512 4.4032 29.4912 4.4032 16.2816 0 31.6416-3.6352 45.6192-9.8816l144.4352 216.6272c-9.1136 14.848-13.9264 31.8976-14.0288 49.2544 0 53.0432 42.9568 96 96 96s96-42.9568 96-96c-0.0512-53.0432-43.008-96-96.0512-96zM384 832c-52.9408 0-96-43.0592-96-96S331.0592 640 384 640s96 43.0592 96 96S436.9408 832 384 832z" p-id="7299"></path></svg>