<svg t="1769484335323" class="icon" viewBox="0 0 1024 1024" version="1.1" xmlns="http://www.w3.org/2000/svg" p-id="55032" width="48" height="48"><path d="M391.68 756.736V1024l240.64-133.632v-267.264l-240.64 133.632zM391.68 430.592l240.64 134.144V297.472L391.68 163.84v266.752zM114.688 890.368L355.328 1024v-267.264L114.688 623.104v267.264zM373.76 459.264l-38.912 21.504-202.24 112.128 240.64 133.632 241.152-133.632-240.64-133.632zM668.16 297.472v267.264l241.152-133.632V163.84l-241.152 133.632zM650.24 0L611.328 21.504 409.6 133.632l240.64 133.632 240.64-133.632L650.24 0zM667.136 601.088v267.264l240.64-133.632-0.512-267.264-240.128 133.632z" p-id="55033"></path></svg>