<svg t="1727342064594" class="icon" viewBox="0 0 1024 1024" version="1.1" xmlns="http://www.w3.org/2000/svg" p-id="41881" width="64" height="64"><path d="M147.7 325.2L862 250.1c14.9-1.6 28.2 9.2 29.8 24.1l4.2 40.4c1.6 14.9-9.2 28.2-24.1 29.8l-714.4 75.1c-14.9 1.6-28.2-9.2-29.8-24.1l-4.2-40.4c-1.5-14.9 9.3-28.2 24.2-29.8z" p-id="41882"></path><path d="M153.3 398.8h740c15 0 27.1 12.1 27.1 27.1v474.3c0 15-12.1 27.1-27.1 27.1h-759c-15 0-27.1-12.1-27.1-27.1V425.9c0-13.6 10-24.8 23-26.8-7.5-3.1-13.4-9.6-15.7-18l-14-52.4c-3.9-14.5 4.7-29.3 19.2-33.2l733-196.3c14.5-3.9 29.3 4.7 33.2 19.2l14 52.4c3.9 14.5-4.7 29.3-19.2 33.2L153.3 398.8z m546.3 27.1H538.8l-44.4 122h160.9l44.3-122z m28.9 0l-44.4 122h209.1V439.5c0-7.5-6.1-13.6-13.6-13.6H728.5z m-218.6 0H349l-44.4 122h160.9l44.4-122z m-189.7 0H147.8c-7.5 0-13.6 6.1-13.6 13.6v108.4h141.5l44.5-122z m573 149.1h-759v311.7c0 7.5 6.1 13.6 13.6 13.6h731.8c7.5 0 13.6-6.1 13.6-13.6V575z m-760-255c-3.6 1-5.8 4.7-4.8 8.3l10.5 39.3c1 3.6 4.7 5.8 8.3 4.8l720-192.9c3.6-1 5.8-4.7 4.8-8.3l-10.5-39.3c-1-3.6-4.7-5.8-8.3-4.8L133.2 320z" p-id="41883"></path></svg>