<svg t="1769483747604" class="icon" viewBox="0 0 1024 1024" version="1.1" xmlns="http://www.w3.org/2000/svg" p-id="30146" width="48" height="48"><path d="M853.333333 696.896V853.333333a85.333333 85.333333 0 0 1-85.333333 85.333334H256a85.333333 85.333333 0 0 1-85.333333-85.333334v-156.437333h682.666666zM693.333333 768a42.666667 42.666667 0 1 0 0 85.333333 42.666667 42.666667 0 0 0 0-85.333333zM853.333333 391.104v241.792H170.666667V391.104h682.666666zM426.666667 480h-106.666667a32 32 0 0 0 0 64h106.666667a32 32 0 0 0 0-64zM768 85.333333a85.333333 85.333333 0 0 1 85.333333 85.333334v156.437333H170.666667V170.666667a85.333333 85.333333 0 0 1 85.333333-85.333334h512zM426.666667 181.333333h-106.666667a32 32 0 0 0 0 64h106.666667a32 32 0 0 0 0-64z"  p-id="30147"></path></svg>