<svg t="1773632361409" class="icon" viewBox="0 0 1024 1024" version="1.1" xmlns="http://www.w3.org/2000/svg" p-id="31814" width="44" height="44"><path d="M951.395402 173.629479H72.604598c-37.406958 0-67.728544 30.393217-67.728544 67.674309v541.392424c0 37.377282 30.256094 67.674309 67.570955 67.674309h741.714845c18.678408 0 44.269249-10.870582 57.257052-24.38641l124.264165-129.296785c12.94687-13.468756 23.440875-39.470967 23.440875-58.198493V241.399979c0-37.428448-30.358425-67.7705-67.728544-67.7705zM968.409914 638.488833c0 5.583159-5.399987 18.981307-9.273201 23.013133L834.870502 790.79875c-3.40761 3.547803-15.790638 8.81783-20.707624 8.81783H72.447009c-9.302877 0-16.856923-7.568373-16.856923-16.919345V241.303788c0-9.275247 7.642051-16.919345 17.014512-16.919345h878.790804c9.379625 0 17.014512 7.635911 17.014512 17.016559v397.087831zM850.080925 393.569704H714.848964c-9.335622 0-16.905018 7.574512-16.905018 16.919344 0 9.342786 7.569396 16.919345 16.905018 16.919345h135.231961c9.334599 0 16.905018-7.575536 16.905019-16.919345 0-9.344832-7.569396-16.919345-16.905019-16.919344z m0 84.593653H714.848964c-9.335622 0-16.905018 7.574512-16.905018 16.919345 0 9.342786 7.569396 16.919345 16.905018 16.919345h135.231961c9.334599 0 16.905018-7.575536 16.905019-16.919345 0-9.344832-7.569396-16.919345-16.905019-16.919345z m0-169.186283H714.848964c-9.335622 0-16.905018 7.574512-16.905018 16.918321s7.569396 16.919345 16.905018 16.919345h135.231961c9.334599 0 16.905018-7.574512 16.905019-16.919345 0-9.343809-7.569396-16.918321-16.905019-16.918321z m-422.506756 0H224.532823c-55.971779 0-101.328803 45.405119-101.328803 101.41476v203.215308c0 56.017828 45.364187 101.414761 101.328803 101.414761h203.041346c55.970756 0 101.328803-45.404096 101.328803-101.414761V410.391834c0-56.017828-45.36828-101.414761-101.328803-101.41476z m-152.23317 33.836642h101.42397v84.593654h-101.42397v-84.593654z m-118.327966 67.578118c0-37.326117 30.226418-67.578118 67.51979-67.578118h16.999162v84.593654h-84.518952v-17.015536z m84.519976 270.793426h-16.999163c-37.293371 0-67.51979-30.249955-67.51979-67.578118v-17.014512h84.518953v84.59263z m253.559926-67.578118c0 37.32714-30.221302 67.578118-67.518766 67.578118H410.575006V562.755987h-33.809013v118.429273h-101.423971v-84.59263h101.405551v-33.836643h-219.73454v-101.511974h338.079902v152.363129z m0-186.199772H410.575006v-84.593654h16.999163c37.293371 0 67.518766 30.250978 67.518766 67.578118v17.015536z" p-id="31815"></path></svg>