<?xml version="1.0" standalone="no"?><!DOCTYPE svg PUBLIC "-//W3C//DTD SVG 1.1//EN" "http://www.w3.org/Graphics/SVG/1.1/DTD/svg11.dtd"><svg t="1704330977498" class="icon" viewBox="0 0 1024 1024" version="1.1" xmlns="http://www.w3.org/2000/svg" p-id="2372" xmlns:xlink="http://www.w3.org/1999/xlink" width="200" height="200"><path d="M532.48 0C238.592 0 0 204.8 0 457.216c0 150.016 54.784 272.896 163.84 361.984v150.016c0 40.96 13.824 54.784 34.304 54.784 12.8-0.512 24.576-5.12 34.304-13.824l163.84-95.744c45.056 8.192 90.624 12.288 136.704 13.824 293.376 0 491.52-218.624 491.52-471.04S778.752 0 532.48 0z m0 849.92c-27.136 0-95.744-6.656-122.88-6.656l-27.136-6.656-20.48 13.824-122.88 78.336v-148.48l-27.136-20.48c-88.576-75.264-126.464-179.2-126.464-302.08 0-218.624 194.56-378.88 454.144-378.88 175.104-3.584 395.776 153.6 413.184 378.88-7.168 231.936-181.248 392.192-420.352 392.192zM272.896 402.944c-33.792 0-61.44 27.648-61.44 61.44s27.648 61.44 61.44 61.44 61.44-27.648 61.44-61.44c0-16.384-6.656-31.744-17.92-43.52s-27.136-17.92-43.52-17.92z m239.104 0c-33.792 0-61.44 27.648-61.44 61.44s27.648 61.44 61.44 61.44 61.44-27.648 61.44-61.44c0-16.384-6.656-31.744-17.92-43.52s-27.136-17.92-43.52-17.92z m239.104 0c-33.792 0-61.44 27.648-61.44 61.44s27.648 61.44 61.44 61.44 61.44-27.648 61.44-61.44c0-16.384-6.656-31.744-17.92-43.52-11.776-11.776-27.136-17.92-43.52-17.92z" p-id="2373"></path></svg>