<svg t="1727343984506" class="icon" viewBox="0 0 1024 1024" version="1.1" xmlns="http://www.w3.org/2000/svg" p-id="68501" width="64" height="64"><path d="M554.666667 341.333333a42.666667 42.666667 0 1 1-85.333334 0 42.666667 42.666667 0 0 1 85.333334 0z m-106.666667 320c0-35.242667 28.714667-64 64-64s64 28.757333 64 64c0 35.328-28.714667 64-64 64s-64-28.672-64-64zM512 810.666667c-82.346667 0-149.333333-66.986667-149.333333-149.333334S429.653333 512 512 512s149.333333 66.986667 149.333333 149.333333S594.346667 810.666667 512 810.666667z m0-597.333334c70.570667 0 128 57.472 128 128 0 70.613333-57.429333 128-128 128S384 411.989333 384 341.333333c0-70.528 57.429333-128 128-128z m213.333333-128H298.666667C228.096 85.333333 170.666667 142.848 170.666667 213.333333v597.333334c0 70.613333 57.429333 128 128 128h426.666666c70.570667 0 128-57.386667 128-128V213.333333c0-70.528-57.429333-128-128-128z" p-id="68502"></path></svg>