<svg t="1769483086168" class="icon" viewBox="0 0 1024 1024" version="1.1" xmlns="http://www.w3.org/2000/svg" p-id="21038" width="48" height="48"><path d="M96 790.3744V163.1744a102.4 102.4 0 0 1 102.4-102.4h169.6256a102.4 102.4 0 0 1 102.4 102.4v627.2a102.4 102.4 0 0 1-102.4 102.4H198.3488a102.4 102.4 0 0 1-102.4-102.4z m66.56 0q0 14.848 10.496 25.344 10.496 10.496 25.344 10.496h169.6256q14.848 0 25.2928-10.496 10.496-10.496 10.496-25.344V163.1744q0-14.848-10.496-25.2928-10.496-10.5472-25.344-10.5472H198.4512q-14.848 0-25.344 10.5472-10.496 10.496-10.496 25.2928v627.2z"  p-id="21039"></path><path d="M553.5744 790.3744V163.1744a102.4 102.4 0 0 1 102.4-102.4h169.5744a102.4 102.4 0 0 1 102.4 102.4v627.2a102.4 102.4 0 0 1-102.4 102.4h-169.5744a102.4 102.4 0 0 1-102.4-102.4z m66.56 0q0 14.848 10.496 25.344 10.496 10.496 25.344 10.496h169.5744q14.848 0 25.344-10.496 10.496-10.496 10.496-25.344V163.1744q0-14.848-10.496-25.2928-10.496-10.5472-25.344-10.5472h-169.5744q-14.848 0-25.344 10.5472-10.496 10.496-10.496 25.2928v627.2z"  p-id="21040"></path></svg>