<svg t="1769415144899" class="icon" viewBox="0 0 1024 1024" version="1.1" xmlns="http://www.w3.org/2000/svg" p-id="48015" width="48" height="48"><path d="M139.6 93.2c19.6-14.9 44.2-23.2 68.8-23.4h20.9v238.7c0.1 13 12.8 23.9 25.7 22.1 7.1-0.4 12.5-5.2 18-9.1 19.8-14.1 39.7-28.3 59.5-42.4 22 15.6 44 31.3 66 47 5.6 4.2 13 5.7 19.8 3.9 10-2.3 17.6-12 17.5-22.3V69.8h366.5c8.8 0.1 17.6-0.3 26.3 0.8 29.4 3.4 57.2 18.7 75.9 41.6 16.5 19.8 26 45.3 26.5 71.1v653.6c0.4 27.3-9.4 54.6-27 75.4-18.4 22.2-45.2 37.1-73.8 40.7-9.8 1.4-19.6 0.9-29.5 1h-585c-6.7 0.1-13.4 0-20-0.8-21.2-2.4-41.6-10.9-58.3-24.2-20-15.7-34.6-38.2-40.8-62.9-2.1-7.7-2.8-15.7-3.7-23.7v-661c0.7-4.5 0.8-9.2 1.6-13.7 4.7-29.4 21.2-56.7 45.1-74.5m367.1 262.6c-31.1 2.9-61.6 12.1-89 27-27.4 14.8-51.7 35.2-71.1 59.6-21.1 26.3-36.3 57.4-44.3 90.2-8.7 36.1-8.7 74.4 0.1 110.5 7.8 31.7 22.3 61.8 42.4 87.5 28.6 36.8 68.6 64.8 113.1 78.8 41.8 13.3 87.5 14.4 129.9 3.3 34-8.9 65.9-25.7 92.5-48.7 25.9-22.3 46.9-50.3 60.8-81.6C758 645 764.4 603 759.9 562.2c-5.5-52-29.3-101.7-66.2-138.6-23.5-23.8-52.3-42.4-83.6-54.1-32.8-12.4-68.5-16.9-103.4-13.7z" p-id="48016"></path><path d="M275.9 69.8h113.3v192.3c-14.4-10.2-28.8-20.5-43.2-30.7-7.7-5.6-18.9-5.6-26.7-0.2-14.5 10.3-28.9 20.6-43.4 30.9V69.8zM509.9 402.4c30.6-3 61.9 1.4 90.2 13.4 29.2 12.2 55.2 32 74.8 56.9 16.1 20.5 28 44.5 34.2 69.8 11.7 46.6 4.6 97.6-19.9 138.9-19.9 34.1-51 61.6-87.4 77.2-42.4 18.4-91.8 19.9-135.3 4.4-23.8-8.4-45.9-21.8-64.4-39-22.1-20.4-39.1-46.2-49.1-74.6-11.9-33.6-13.8-70.7-5.5-105.4 7.4-30.9 22.9-59.8 44.5-83 30.5-32.9 73.2-54.3 117.9-58.6m5.3 73c-5.8 4-9.7 10.9-9.8 18v70.9h-71.2c-5.8 0.1-11.3 2.8-15.3 6.9-7.1 7-8.7 18.7-3.9 27.5 4 7.5 12.3 12.4 20.8 12.3 23.2 0.1 46.4 0 69.6 0v68.9c-0.5 8.3 4 16.6 11.2 20.8 6.6 4 15.3 4.4 22.3 1 6.5-3.1 11.3-9.3 12.6-16.4 0.8-4.2 0.5-8.5 0.5-12.7V611h68.8c6.6 0.1 13.3-2.4 17.8-7.3 7.6-7.7 8.5-21 2.1-29.7-4.3-6-11.6-9.9-19.1-9.6H552V495c0.1-7-3-14-8.5-18.5-7.8-6.7-20.1-7.1-28.3-1.1z" p-id="48017"></path></svg>