<svg t="1769485064586" class="icon" viewBox="0 0 1024 1024" version="1.1" xmlns="http://www.w3.org/2000/svg" p-id="69516" width="48" height="48"><path d="M810.666667 96A117.333333 117.333333 0 0 1 928 213.333333v128a32 32 0 1 1-64 0V213.333333c0-29.44-23.893333-53.333333-53.333333-53.333333h-128a32 32 0 1 1 0-64h128zM512 96H170.666667A74.666667 74.666667 0 0 0 96 170.666667v256c0 41.216 33.450667 74.666667 74.666667 74.666666h341.333333A74.666667 74.666667 0 0 0 586.666667 426.666667V170.666667A74.666667 74.666667 0 0 0 512 96z m0 64a10.666667 10.666667 0 0 1 10.666667 10.666667v256a10.666667 10.666667 0 0 1-10.666667 10.666666H170.666667a10.666667 10.666667 0 0 1-10.666667-10.666666V170.666667A10.666667 10.666667 0 0 1 170.666667 160h341.333333z"  p-id="69517"></path><path d="M187.733333 236.8a32 32 0 0 1 44.8-6.4l85.333334 64c17.066667 12.8 17.066667 38.4 0 51.2l-85.333334 64a32 32 0 1 1-38.4-51.2l51.2-38.4-51.2-38.4a32 32 0 0 1-8.96-40.789333l2.56-4.010667zM469.333333 352a32 32 0 0 1 0 64H384a32 32 0 0 1 0-64h85.333333zM128 650.666667a32 32 0 0 1 32 32v128c0 29.44 23.893333 53.333333 53.333333 53.333333h128a32 32 0 1 1 0 64H213.333333A117.333333 117.333333 0 0 1 96 810.666667v-128a32 32 0 0 1 32-32zM746.666667 480a138.666667 138.666667 0 1 0 0 277.333333 138.666667 138.666667 0 0 0 0-277.333333z m0 64a74.666667 74.666667 0 1 1 0 149.333333 74.666667 74.666667 0 0 1 0-149.333333z"  p-id="69518"></path><path d="M746.666667 714.666667A224 224 0 0 0 522.666667 938.666667c0 17.664 14.336 32 32 32h384a32 32 0 0 0 32-32c0-123.733333-100.266667-224-224-224z m0 64l8.533333 0.213333a160.085333 160.085333 0 0 1 148.010667 126.549333l0.213333 1.237334h-313.557333l0.256-1.28a160.042667 160.042667 0 0 1 156.544-126.72z"  p-id="69519"></path></svg>