<svg t="1704853730825" class="icon" viewBox="0 0 1024 1024" version="1.1" xmlns="http://www.w3.org/2000/svg" p-id="5113" width="32" height="32"><path d="M512 951.008a239.024 239.024 0 0 1-118-446.88V192.944a116.064 116.064 0 0 1 115.952-115.936h4.096a116.064 116.064 0 0 1 115.952 115.936v311.184A239.024 239.024 0 0 1 512 951.008z m-2.048-818a60.016 60.016 0 0 0-59.952 59.936v326.912a30.144 30.144 0 0 1-17.04 27.056 182.992 182.992 0 1 0 158.064 0 30.112 30.112 0 0 1-17.024-27.04V192.944a60.016 60.016 0 0 0-59.952-59.936z m105.264 363.392z" p-id="5114"></path><path d="M540 589.12V263.008a28 28 0 0 0-28-28 28 28 0 0 0-28 28V589.12a126 126 0 1 0 56 0z" p-id="5115"></path><path d="M671.008 188m20 0l32 0q20 0 20 20l0 0q0 20-20 20l-32 0q-20 0-20-20l0 0q0-20 20-20Z" p-id="5116"></path><path d="M671.008 281.504m20 0l32 0q20 0 20 20l0 0q0 20-20 20l-32 0q-20 0-20-20l0 0q0-20 20-20Z" p-id="5117"></path><path d="M671.008 375.008m20 0l32 0q20 0 20 20l0 0q0 20-20 20l-32 0q-20 0-20-20l0 0q0-20 20-20Z" p-id="5118"></path></svg>