<svg t="1727408975268" class="icon" viewBox="0 0 1024 1024" version="1.1" xmlns="http://www.w3.org/2000/svg" p-id="109005" width="64" height="64"><path d="M880.705422 203.986489C858.973867 224.210489 858.973867 224.210489 832.861867 248.445156 780.694756 296.971378 780.694756 296.971378 763.286756 313.127822 761.636978 314.7776 760.328533 314.7776 759.503644 313.952711L731.372089 285.821156C730.5472 284.996267 730.5472 283.659378 731.457422 282.749156L840.200533 174.034489C851.293867 162.912711 851.293867 144.907378 840.200533 133.7856 829.078756 122.692267 811.073422 122.692267 799.980089 133.7856L691.236978 242.528711C668.140089 265.6256 668.0832 302.973156 691.1232 326.0416L719.254756 354.173156C742.351644 377.270044 779.6992 377.156267 802.767644 354.087822 819.407644 338.642489 819.407644 338.642489 871.6032 290.116267 897.686756 265.853156 897.686756 265.853156 919.446756 245.6576 930.938311 234.962489 931.592533 216.957156 920.897422 205.4656 910.202311 193.9456 892.196978 193.291378 880.705422 203.986489" p-id="109006"></path><path d="M823.330133 121.466311C803.447467 114.326756 782.398578 110.657422 760.894578 110.657422 658.779022 110.657422 576.005689 193.430756 576.005689 295.546311 576.005689 397.661867 658.779022 480.4352 760.894578 480.4352 863.010133 480.4352 945.783467 397.661867 945.783467 295.546311 945.783467 267.414756 939.497244 240.136533 927.522133 215.332978 920.695467 201.167644 903.685689 195.222756 889.5488 202.049422 875.383467 208.876089 869.438578 225.885867 876.265244 240.022756 884.542578 257.174756 888.894578 276.033422 888.894578 295.546311 888.894578 366.230756 831.579022 423.546311 760.894578 423.546311 690.210133 423.546311 632.894578 366.230756 632.894578 295.546311 632.894578 224.861867 690.210133 167.546311 760.894578 167.546311 775.827911 167.546311 790.391467 170.077867 804.130133 175.0272 818.921244 180.317867 835.191467 172.637867 840.510578 157.846756 845.801244 143.055644 838.121244 126.756978 823.330133 121.466311" p-id="109007"></path><path d="M669.425778 434.062222 485.219556 618.268444 320.384 783.104 245.461333 858.026667C236.558222 866.929778 221.909333 866.929778 212.892444 857.912889 203.818667 848.839111 203.818667 834.275556 212.778667 825.315556L286.648889 751.445333C360.490667 677.603556 360.490667 677.603556 449.123556 588.970667L634.183111 403.911111 594.531556 363.093333C461.610667 496.042667 172.558222 785.095111 172.558222 785.095111 141.326222 816.327111 141.411556 866.872889 172.672 898.133333 203.847111 929.308444 254.506667 929.422222 285.681778 898.275556 285.681778 898.275556 577.550222 606.407111 712.405333 471.523556L691.982222 411.505778 669.425778 434.062222Z" p-id="109008"></path><path d="M149.711644 207.351467 173.036089 184.055467 223.468089 221.886578C223.297422 221.744356 223.439644 221.858133 223.894756 222.199467L224.406756 222.569244C224.292978 222.483911 224.150756 222.370133 224.065422 222.313244 224.6912 222.7968 225.572978 223.451022 226.540089 224.162133L230.010311 226.779022 192.4352 264.297244 149.711644 207.351467ZM487.290311 378.473244C453.583644 344.766578 402.156089 340.0448 362.988089 363.483022L267.670756 269.559467 296.513422 240.688356C307.6352 229.566578 306.468978 213.011911 293.981867 203.653689L190.301867 125.886578C177.900089 116.585244 158.614756 117.950578 147.464533 129.1008L94.785422 181.808356C83.521422 193.072356 82.184533 212.130133 91.542756 224.617244L169.309867 328.325689C178.6112 340.699022 195.279644 341.950578 206.372978 330.857244L227.450311 309.779911 324.332089 405.267911C305.132089 443.497244 310.991644 491.027911 342.877867 522.942578 342.877867 522.942578 367.340089 546.6368 390.294756 569.022578L430.0032 528.318578C428.2112 526.526578 428.2112 526.526578 426.390756 524.763022 426.191644 524.563911 426.191644 524.563911 425.992533 524.393244 416.463644 515.091911 406.280533 505.193244 396.068978 495.294578 389.953422 489.349689 385.2032 484.741689 382.472533 482.096356 365.519644 465.115022 365.548089 436.585244 383.268978 418.864356 400.904533 401.2288 429.548089 401.171911 447.069867 418.693689 454.351644 425.975467 454.351644 425.975467 476.168533 447.8208 486.749867 458.373689 487.0912 458.715022 495.340089 466.963911L536.413867 427.5968 487.290311 378.473244Z" p-id="109009"></path><path d="M597.390222 581.216711 806.627556 790.454044C824.234667 808.061156 824.177778 836.590933 806.485333 854.283378 788.849778 871.918933 760.206222 871.975822 742.684444 854.454044L680.504889 792.274489C618.325333 730.094933 618.325333 730.094933 543.687111 655.485156L534.983111 646.752711 494.762667 687.0016C597.077333 789.287822 702.464 894.674489 702.464 894.674489 742.229333 934.468267 806.912 934.326044 846.705778 894.503822 886.584889 854.624711 886.698667 790.084267 846.848 750.2336L637.013333 540.370489 597.390222 581.216711Z" p-id="109010"></path></svg>