<svg t="1727340975590" class="icon" viewBox="0 0 1024 1024" version="1.1" xmlns="http://www.w3.org/2000/svg" p-id="32793" width="64" height="64"><path d="M364.373333 98.56m46.933334 0l467.2 0q46.933333 0 46.933333 46.933333l0 112.853334q0 46.933333-46.933333 46.933333l-467.2 0q-46.933333 0-46.933334-46.933333l0-112.853334q0-46.933333 46.933334-46.933333Z" p-id="32794"></path><path d="M512 408.533333m46.933333 0l319.573334 0q46.933333 0 46.933333 46.933334l0 112.853333q0 46.933333-46.933333 46.933333l-319.573334 0q-46.933333 0-46.933333-46.933333l0-112.853333q0-46.933333 46.933333-46.933334Z" p-id="32795"></path><path d="M512 718.72m46.933333 0l319.573334 0q46.933333 0 46.933333 46.933333l0 112.853334q0 46.933333-46.933333 46.933333l-319.573334 0q-46.933333 0-46.933333-46.933333l0-112.853334q0-46.933333 46.933333-46.933333Z" p-id="32796"></path><path d="M401.493333 789.333333h-180.053333a8.106667 8.106667 0 0 1-7.893333-8.106666V537.813333h180.906666a32 32 0 1 0 0-64H213.333333v-168.533333h16.426667a46.933333 46.933333 0 0 0 46.933333-46.933333V145.493333a46.72 46.72 0 0 0-46.933333-46.933333h-85.333333a46.72 46.72 0 0 0-46.933334 46.933333v112.853334a46.933333 46.933333 0 0 0 46.933334 46.933333H149.333333v476.8A72.106667 72.106667 0 0 0 221.44 853.333333h180.053333a32 32 0 0 0 0-64z" p-id="32797"></path></svg>