<?xml version="1.0" standalone="no"?><!DOCTYPE svg PUBLIC "-//W3C//DTD SVG 1.1//EN" "http://www.w3.org/Graphics/SVG/1.1/DTD/svg11.dtd"><svg t="1720086650782" class="icon" viewBox="0 0 1024 1024" version="1.1" xmlns="http://www.w3.org/2000/svg" p-id="4314" xmlns:xlink="http://www.w3.org/1999/xlink" width="64" height="64"><path d="M887 373H137c-22.09 0-40-17.91-40-40V135c0-22.09 17.91-40 40-40h750c22.09 0 40 17.91 40 40v198c0 22.09-17.91 40-40 40zM304 651H138c-22.09 0-40-17.91-40-40V445c0-22.09 17.91-40 40-40h166c22.09 0 40 17.91 40 40v166c0 22.09-17.91 40-40 40zM594.5 651h-166c-22.09 0-40-17.91-40-40V445c0-22.09 17.91-40 40-40h166c22.09 0 40 17.91 40 40v166c0 22.09-17.91 40-40 40zM885 651H719c-22.09 0-40-17.91-40-40V445c0-22.09 17.91-40 40-40h166c22.09 0 40 17.91 40 40v166c0 22.09-17.91 40-40 40z" p-id="4315"></path><path d="M304 929H138c-22.09 0-40-17.91-40-40V723c0-22.09 17.91-40 40-40h166c22.09 0 40 17.91 40 40v166c0 22.09-17.91 40-40 40zM594.5 929h-166c-22.09 0-40-17.91-40-40V723c0-22.09 17.91-40 40-40h166c22.09 0 40 17.91 40 40v166c0 22.09-17.91 40-40 40zM885 929H719c-22.09 0-40-17.91-40-40V723c0-22.09 17.91-40 40-40h166c22.09 0 40 17.91 40 40v166c0 22.09-17.91 40-40 40z" p-id="4316"></path></svg>