<svg t="1769485236197" class="icon" viewBox="0 0 1024 1024" version="1.1" xmlns="http://www.w3.org/2000/svg" p-id="76887" width="48" height="48"><path d="M855.1100986 164.38571167v24.9975389c-26.77954146 3.3165051-45.49057032 10.34551585-56.13308728 21.03753255-10.69201668 10.69201668-22.02753397 31.08604797-34.05605223 61.13259478L536.52760513 859.56478792h-27.07654189L252.99116597 259.47535922c-12.67201952-28.66054415-23.71053706-46.53007215-33.01655108-53.55908292C210.56960072 198.93676528 193.54157428 193.39275665 168.84103579 189.38325058V164.38571167h336.60052136v24.9975389c-34.74905391 0-57.8160897 2.3760034-69.10210723 7.02901076-11.38501768 4.70250709-17.07752618 16.38452519-17.07752618 35.09555405 0 7.3755116 4.20750638 21.6315334 12.57301939 42.61956621 8.36551301 21.08703295 14.20652206 35.64005518 17.57252687 43.65906735l131.373204 316.99849121 127.11619653-330.06651129c5.9400092-14.75102251 10.79101683-27.76954288 14.40452235-39.10506016 3.66300592-11.33551727 5.49450822-21.43353311 5.49450822-30.09604655 0-30.6900474-28.7595443-46.08457118-86.17963341-46.08457185V164.38571167h213.49383091z"  p-id="76888"></path></svg>