<svg t="1769483411636" class="icon" viewBox="0 0 1024 1024" version="1.1" xmlns="http://www.w3.org/2000/svg" p-id="27915" width="48" height="48"><path d="M774.144 577.536l196.608-65.536v327.68l-196.608-65.536v98.304c0 9.556992-3.072 17.408-9.216 23.552s-13.995008 9.216-23.552 9.216H86.016c-9.556992 0-17.408-3.072-23.552-9.216s-9.216-13.995008-9.216-23.552V479.232c0-9.556992 3.072-17.408 9.216-23.552s13.995008-9.216 23.552-9.216h655.36c9.556992 0 17.408 3.072 23.552 9.216s9.216 13.995008 9.216 23.552v98.304zM184.32 774.144v65.536h393.216v-65.536H184.32z m196.608-491.52c1.364992-46.420992 17.408-84.992 48.128-115.712s69.291008-46.763008 115.712-48.128c46.420992 1.364992 84.992 17.408 115.712 48.128s46.763008 69.291008 48.128 115.712c-1.364992 46.420992-17.408 84.992-48.128 115.712s-69.291008 46.763008-115.712 48.128c-46.420992-1.364992-84.992-17.408-115.712-48.128s-46.763008-69.291008-48.128-115.712z m65.536 0c0 17.748992 4.436992 34.132992 13.312 49.152 8.875008 15.019008 20.992 26.964992 36.352 35.84 15.36 8.875008 31.572992 13.312 48.64 13.312s33.451008-4.436992 49.152-13.312c15.700992-8.875008 27.819008-20.820992 36.352-35.84 8.532992-15.019008 12.8-31.403008 12.8-49.152-0.683008-27.988992-10.24-51.2-28.672-69.632s-41.643008-27.648-69.632-27.648-51.2 9.216-69.632 27.648-27.988992 41.643008-28.672 69.632z m-327.68 32.768c0-23.892992 5.803008-45.739008 17.408-65.536s27.648-35.668992 48.128-47.616c20.48-11.947008 42.324992-17.92 65.536-17.92s45.056 5.972992 65.536 17.92 36.523008 27.819008 48.128 47.616c11.604992 19.796992 17.408 41.643008 17.408 65.536-0.683008 36.864-13.483008 67.755008-38.4 92.672S286.72 445.780992 249.856 446.464c-36.864-0.683008-67.755008-13.483008-92.672-38.4S119.467008 352.256 118.784 315.392z m65.536 0c0.683008 18.432 7.168 33.792 19.456 46.08s27.648 18.432 46.08 18.432 33.792-6.144 46.08-18.432 18.432-27.648 18.432-46.08-6.144-33.792-18.432-46.08-27.648-18.432-46.08-18.432-33.792 6.144-46.08 18.432-18.772992 27.648-19.456 46.08z" p-id="27916"></path></svg>