<?xml version="1.0" encoding="UTF-8"?>
<svg width="16px" height="16px" viewBox="0 0 16 16" version="1.1" xmlns="http://www.w3.org/2000/svg" xmlns:xlink="http://www.w3.org/1999/xlink">
    <path d="M11.1358398,5.4070598 C13.7472429,5.4070598 15.999976,7.31588978 15.999976,9.69391971 C16.0039864,10.7360882 15.5046979,11.7359568 14.6151111,12.5926578 L14.4948382,12.7022985 L15.0195421,14.4597121 C15.0501739,14.5623082 15.0383946,14.6729022 14.9868403,14.7667448 C14.8804714,14.9603646 14.6372826,15.0310954 14.4436628,14.9247265 L12.4148466,13.8101561 L12.1930844,13.8620352 L11.9258479,13.9144023 C11.6487928,13.963259 11.3909249,13.9895466 11.1358398,13.9895466 C8.48720615,13.9895466 6.26491088,12.1092984 6.26491088,9.69821759 C6.26491088,7.28727089 8.48724469,5.4070598 11.1358398,5.4070598 Z M5.79019824,1.2 C8.4100789,1.2 10.7543271,2.66536099 11.4632034,4.81754406 C11.3537974,4.810045 11.2451244,4.8070598 11.1358398,4.8070598 C8.14237897,4.8070598 5.66491088,6.96253747 5.66491088,9.69821759 C5.66491088,10.2329161 5.75954499,10.7454487 5.93417041,11.2240549 C5.57593689,11.2227057 5.25284666,11.2042167 4.98801913,11.1658802 L4.62249398,11.1046867 L4.1864659,11.0184432 L1.70817675,12.2428368 C1.61348355,12.2896197 1.50413059,12.297052 1.40397818,12.2635118 C1.19449896,12.193359 1.08155255,11.9666725 1.15170531,11.7571933 L1.807441,9.79913779 L1.64409344,9.65985375 C0.644158812,8.76484092 0.0785807597,7.68644236 0.00761450657,6.47022256 L0,6.20751113 C0,3.3951428 2.63535157,1.2 5.79019824,1.2 Z M9.63306466,8.15169615 C9.50123407,8.15183354 9.3748575,8.20433484 9.2817364,8.29765035 C9.1886153,8.39096586 9.13637767,8.51745165 9.13651493,8.64928224 C9.13651493,8.92399122 9.35887399,9.14686833 9.63306466,9.14686833 C9.76489525,9.14673093 9.89127182,9.09422963 9.98439292,9.00091412 C10.077514,8.90759861 10.1297517,8.78111283 10.1296144,8.64928224 C10.1296144,8.37457325 9.90725533,8.15169615 9.63306466,8.15169615 Z M12.6343455,8.15169615 C12.5025379,8.15183352 12.3761833,8.20432569 12.2830784,8.29762497 C12.1899735,8.39092424 12.1377449,8.51738802 12.1378822,8.64919569 C12.1378822,8.92385689 12.3602025,9.14669522 12.6343455,9.14669522 C12.7661831,9.14660365 12.8925821,9.09413169 12.9857243,9.00082744 C13.0788666,8.9075232 13.1311188,8.78103325 13.1309816,8.64919569 C13.1309816,8.37453448 12.9086612,8.15169615 12.6343455,8.15169615 Z M3.9723978,4.11423189 C3.79662792,4.11437882 3.62811821,4.18435675 3.50395145,4.30876609 C3.37978468,4.43317544 3.31013579,4.6018214 3.3103315,4.77759123 C3.31013579,4.95336106 3.37978468,5.12200703 3.50395145,5.24641637 C3.62811821,5.37082572 3.79662792,5.44080364 3.9723978,5.44095058 C4.14816767,5.44080364 4.31667738,5.37082572 4.44084415,5.24641637 C4.56501091,5.12200703 4.63465981,4.95336106 4.6344641,4.77759123 C4.63465981,4.6018214 4.56501091,4.43317544 4.44084415,4.30876609 C4.31667738,4.18435675 4.14816767,4.11437882 3.9723978,4.11423189 Z M7.28282167,4.11423189 C7.1070443,4.11432981 6.93851063,4.18427635 6.81432124,4.30867365 C6.69013184,4.43307095 6.62046731,4.60172138 6.620663,4.77749867 C6.620663,4.95324398 6.69029125,5.12186641 6.81444069,5.2462584 C6.93859013,5.37065039 7.10707632,5.44061855 7.28282167,5.44076546 C7.45856702,5.44061855 7.62705322,5.37065039 7.75120266,5.2462584 C7.8753521,5.12186641 7.94499128,4.95324398 7.94479559,4.77749867 C7.94499128,4.60175337 7.8753521,4.43313094 7.75120266,4.30873895 C7.62705322,4.18434696 7.45856702,4.1143788 7.28282167,4.11423189 Z" id="fe-wechart"  fill-rule="nonzero"></path>
</svg>